<?xml version="1.0" encoding="UTF-8"?>
<svg id="_レイヤー_2" data-name="レイヤー 2" xmlns="http://www.w3.org/2000/svg" viewBox="0 0 90 200">
  <defs>
    <style>
      .cls-1 {
        fill: #fffed2;
      }

      .cls-2 {
        fill: #f5bbb1;
      }

      .cls-3 {
        fill: #ff3385;
      }

      .cls-4 {
        fill: #ff3787;
      }

      .cls-5 {
        fill: #ff0c78;
      }

      .cls-6 {
        fill: #ff0072;
      }

      .cls-7 {
        fill: #ff0876;
      }
    </style>
  </defs>
  <g id="_レイヤー_1-2" data-name="レイヤー 1">
    <g>
      <rect class="cls-6" x="50" y="195" width="5" height="5"/>
      <rect class="cls-6" x="45" y="195" width="5" height="5"/>
      <rect class="cls-6" x="40" y="195" width="5" height="5"/>
      <rect class="cls-6" x="35" y="195" width="5" height="5"/>
      <rect class="cls-6" x="30" y="195" width="5" height="5"/>
      <rect class="cls-6" x="25" y="195" width="5" height="5"/>
      <rect class="cls-6" x="20" y="195" width="5" height="5"/>
      <rect class="cls-6" x="15" y="195" width="5" height="5"/>
      <rect class="cls-6" x="10" y="195" width="5" height="5"/>
      <rect class="cls-6" x="55" y="190" width="5" height="5"/>
      <rect class="cls-6" x="50" y="190" width="5" height="5"/>
      <rect class="cls-6" x="45" y="190" width="5" height="5"/>
      <rect class="cls-6" x="40" y="190" width="5" height="5"/>
      <rect class="cls-6" x="35" y="190" width="5" height="5"/>
      <rect class="cls-6" x="30" y="190" width="5" height="5"/>
      <rect class="cls-6" x="25" y="190" width="5" height="5"/>
      <rect class="cls-6" x="20" y="190" width="5" height="5"/>
      <rect class="cls-6" x="15" y="190" width="5" height="5"/>
      <rect class="cls-6" x="10" y="190" width="5" height="5"/>
      <rect class="cls-6" x="5" y="190" width="5" height="5"/>
      <rect class="cls-6" x="55" y="185" width="5" height="5"/>
      <rect class="cls-6" x="50" y="185" width="5" height="5"/>
      <rect class="cls-6" x="45" y="185" width="5" height="5"/>
      <rect class="cls-6" x="40" y="185" width="5" height="5"/>
      <rect class="cls-6" x="35" y="185" width="5" height="5"/>
      <rect class="cls-6" x="30" y="185" width="5" height="5"/>
      <rect class="cls-6" x="25" y="185" width="5" height="5"/>
      <rect class="cls-6" x="20" y="185" width="5" height="5"/>
      <rect class="cls-6" x="15" y="185" width="5" height="5"/>
      <rect class="cls-6" x="10" y="185" width="5" height="5"/>
      <rect class="cls-6" x="5" y="185" width="5" height="5"/>
      <rect class="cls-6" y="185" width="5" height="5"/>
      <rect class="cls-6" x="55" y="180" width="5" height="5"/>
      <rect class="cls-6" x="50" y="180" width="5" height="5"/>
      <rect class="cls-6" x="45" y="180" width="5" height="5"/>
      <rect class="cls-1" x="40" y="180" width="5" height="5"/>
      <rect class="cls-1" x="35" y="180" width="5" height="5"/>
      <rect class="cls-1" x="30" y="180" width="5" height="5"/>
      <rect class="cls-1" x="25" y="180" width="5" height="5"/>
      <rect class="cls-1" x="20" y="180" width="5" height="5"/>
      <rect class="cls-1" x="15" y="180" width="5" height="5"/>
      <rect class="cls-1" x="10" y="180" width="5" height="5"/>
      <rect class="cls-1" x="5" y="180" width="5" height="5"/>
      <rect class="cls-6" y="180" width="5" height="5"/>
      <rect class="cls-6" x="55" y="175" width="5" height="5"/>
      <rect class="cls-6" x="50" y="175" width="5" height="5"/>
      <rect class="cls-6" x="45" y="175" width="5" height="5"/>
      <rect class="cls-1" x="40" y="175" width="5" height="5"/>
      <rect class="cls-1" x="35" y="175" width="5" height="5"/>
      <rect class="cls-1" x="30" y="175" width="5" height="5"/>
      <rect class="cls-1" x="25" y="175" width="5" height="5"/>
      <rect class="cls-1" x="20" y="175" width="5" height="5"/>
      <rect class="cls-1" x="15" y="175" width="5" height="5"/>
      <rect class="cls-1" x="10" y="175" width="5" height="5"/>
      <rect class="cls-1" x="5" y="175" width="5" height="5"/>
      <rect class="cls-6" y="175" width="5" height="5"/>
      <rect class="cls-6" x="55" y="170" width="5" height="5"/>
      <rect class="cls-6" x="50" y="170" width="5" height="5"/>
      <rect class="cls-6" x="45" y="170" width="5" height="5"/>
      <rect class="cls-1" x="40" y="170" width="5" height="5"/>
      <rect class="cls-1" x="35" y="170" width="5" height="5"/>
      <rect class="cls-1" x="30" y="170" width="5" height="5"/>
      <rect class="cls-1" x="25" y="170" width="5" height="5"/>
      <rect class="cls-1" x="20" y="170" width="5" height="5"/>
      <rect class="cls-1" x="15" y="170" width="5" height="5"/>
      <rect class="cls-1" x="10" y="170" width="5" height="5"/>
      <rect class="cls-6" x="5" y="170" width="5" height="5"/>
      <rect class="cls-6" y="170" width="5" height="5"/>
      <rect class="cls-6" x="60" y="165" width="5" height="5"/>
      <rect class="cls-6" x="55" y="165" width="5" height="5"/>
      <rect class="cls-6" x="50" y="165" width="5" height="5"/>
      <rect class="cls-6" x="45" y="165" width="5" height="5"/>
      <rect class="cls-1" x="40" y="165" width="5" height="5"/>
      <rect class="cls-1" x="35" y="165" width="5" height="5"/>
      <rect class="cls-1" x="30" y="165" width="5" height="5"/>
      <rect class="cls-1" x="25" y="165" width="5" height="5"/>
      <rect class="cls-1" x="20" y="165" width="5" height="5"/>
      <rect class="cls-1" x="15" y="165" width="5" height="5"/>
      <rect class="cls-1" x="10" y="165" width="5" height="5"/>
      <rect class="cls-6" x="5" y="165" width="5" height="5"/>
      <rect class="cls-6" x="60" y="160" width="5" height="5"/>
      <rect class="cls-6" x="55" y="160" width="5" height="5"/>
      <rect class="cls-6" x="50" y="160" width="5" height="5"/>
      <rect class="cls-1" x="45" y="160" width="5" height="5"/>
      <rect class="cls-1" x="40" y="160" width="5" height="5"/>
      <rect class="cls-1" x="35" y="160" width="5" height="5"/>
      <rect class="cls-1" x="30" y="160" width="5" height="5"/>
      <rect class="cls-1" x="25" y="160" width="5" height="5"/>
      <rect class="cls-1" x="20" y="160" width="5" height="5"/>
      <rect class="cls-1" x="15" y="160" width="5" height="5"/>
      <rect class="cls-1" x="10" y="160" width="5" height="5"/>
      <rect class="cls-6" x="5" y="160" width="5" height="5"/>
      <rect class="cls-6" x="60" y="155" width="5" height="5"/>
      <rect class="cls-6" x="55" y="155" width="5" height="5"/>
      <rect class="cls-6" x="50" y="155" width="5" height="5"/>
      <rect class="cls-1" x="45" y="155" width="5" height="5"/>
      <rect class="cls-1" x="40" y="155" width="5" height="5"/>
      <rect class="cls-1" x="35" y="155" width="5" height="5"/>
      <rect class="cls-1" x="30" y="155" width="5" height="5"/>
      <rect class="cls-1" x="25" y="155" width="5" height="5"/>
      <rect class="cls-1" x="20" y="155" width="5" height="5"/>
      <rect class="cls-1" x="15" y="155" width="5" height="5"/>
      <rect class="cls-1" x="10" y="155" width="5" height="5"/>
      <rect class="cls-6" x="5" y="155" width="5" height="5"/>
      <rect class="cls-6" x="60" y="150" width="5" height="5"/>
      <rect class="cls-6" x="55" y="150" width="5" height="5"/>
      <rect class="cls-6" x="50" y="150" width="5" height="5"/>
      <rect class="cls-1" x="45" y="150" width="5" height="5"/>
      <rect class="cls-1" x="40" y="150" width="5" height="5"/>
      <rect class="cls-1" x="35" y="150" width="5" height="5"/>
      <rect class="cls-1" x="30" y="150" width="5" height="5"/>
      <rect class="cls-1" x="25" y="150" width="5" height="5"/>
      <rect class="cls-1" x="20" y="150" width="5" height="5"/>
      <rect class="cls-1" x="15" y="150" width="5" height="5"/>
      <rect class="cls-1" x="10" y="150" width="5" height="5"/>
      <rect class="cls-6" x="5" y="150" width="5" height="5"/>
      <rect class="cls-6" x="60" y="145" width="5" height="5"/>
      <rect class="cls-6" x="55" y="145" width="5" height="5"/>
      <rect class="cls-6" x="50" y="145" width="5" height="5"/>
      <rect class="cls-1" x="45" y="145" width="5" height="5"/>
      <rect class="cls-1" x="40" y="145" width="5" height="5"/>
      <rect class="cls-1" x="35" y="145" width="5" height="5"/>
      <rect class="cls-1" x="30" y="145" width="5" height="5"/>
      <rect class="cls-1" x="25" y="145" width="5" height="5"/>
      <rect class="cls-1" x="20" y="145" width="5" height="5"/>
      <rect class="cls-1" x="15" y="145" width="5" height="5"/>
      <rect class="cls-1" x="10" y="145" width="5" height="5"/>
      <rect class="cls-6" x="5" y="145" width="5" height="5"/>
      <rect class="cls-6" x="65" y="140" width="5" height="5"/>
      <rect class="cls-6" x="60" y="140" width="5" height="5"/>
      <rect class="cls-6" x="55" y="140" width="5" height="5"/>
      <rect class="cls-6" x="50" y="140" width="5" height="5"/>
      <rect class="cls-1" x="45" y="140" width="5" height="5"/>
      <rect class="cls-1" x="40" y="140" width="5" height="5"/>
      <rect class="cls-1" x="35" y="140" width="5" height="5"/>
      <rect class="cls-1" x="30" y="140" width="5" height="5"/>
      <rect class="cls-1" x="25" y="140" width="5" height="5"/>
      <rect class="cls-1" x="20" y="140" width="5" height="5"/>
      <rect class="cls-1" x="15" y="140" width="5" height="5"/>
      <rect class="cls-6" x="10" y="140" width="5" height="5"/>
      <rect class="cls-6" x="65" y="135" width="5" height="5"/>
      <rect class="cls-6" x="60" y="135" width="5" height="5"/>
      <rect class="cls-6" x="55" y="135" width="5" height="5"/>
      <rect class="cls-3" x="50" y="135" width="5" height="5"/>
      <rect class="cls-1" x="45" y="135" width="5" height="5"/>
      <rect class="cls-1" x="40" y="135" width="5" height="5"/>
      <rect class="cls-1" x="35" y="135" width="5" height="5"/>
      <rect class="cls-1" x="30" y="135" width="5" height="5"/>
      <rect class="cls-1" x="25" y="135" width="5" height="5"/>
      <rect class="cls-1" x="20" y="135" width="5" height="5"/>
      <rect class="cls-1" x="15" y="135" width="5" height="5"/>
      <rect class="cls-6" x="10" y="135" width="5" height="5"/>
      <rect class="cls-6" x="65" y="130" width="5" height="5"/>
      <rect class="cls-6" x="60" y="130" width="5" height="5"/>
      <rect class="cls-6" x="55" y="130" width="5" height="5"/>
      <rect class="cls-1" x="50" y="130" width="5" height="5"/>
      <rect class="cls-1" x="45" y="130" width="5" height="5"/>
      <rect class="cls-1" x="40" y="130" width="5" height="5"/>
      <rect class="cls-1" x="35" y="130" width="5" height="5"/>
      <rect class="cls-1" x="30" y="130" width="5" height="5"/>
      <rect class="cls-1" x="25" y="130" width="5" height="5"/>
      <rect class="cls-1" x="20" y="130" width="5" height="5"/>
      <rect class="cls-1" x="15" y="130" width="5" height="5"/>
      <rect class="cls-6" x="10" y="130" width="5" height="5"/>
      <rect class="cls-6" x="65" y="125" width="5" height="5"/>
      <rect class="cls-6" x="60" y="125" width="5" height="5"/>
      <rect class="cls-6" x="55" y="125" width="5" height="5"/>
      <rect class="cls-1" x="50" y="125" width="5" height="5"/>
      <rect class="cls-1" x="45" y="125" width="5" height="5"/>
      <rect class="cls-1" x="40" y="125" width="5" height="5"/>
      <rect class="cls-1" x="35" y="125" width="5" height="5"/>
      <rect class="cls-1" x="30" y="125" width="5" height="5"/>
      <rect class="cls-1" x="25" y="125" width="5" height="5"/>
      <rect class="cls-1" x="20" y="125" width="5" height="5"/>
      <rect class="cls-1" x="15" y="125" width="5" height="5"/>
      <rect class="cls-6" x="10" y="125" width="5" height="5"/>
      <rect class="cls-6" x="65" y="120" width="5" height="5"/>
      <rect class="cls-6" x="60" y="120" width="5" height="5"/>
      <rect class="cls-6" x="55" y="120" width="5" height="5"/>
      <rect class="cls-1" x="50" y="120" width="5" height="5"/>
      <rect class="cls-1" x="45" y="120" width="5" height="5"/>
      <rect class="cls-1" x="40" y="120" width="5" height="5"/>
      <rect class="cls-1" x="35" y="120" width="5" height="5"/>
      <rect class="cls-1" x="30" y="120" width="5" height="5"/>
      <rect class="cls-1" x="25" y="120" width="5" height="5"/>
      <rect class="cls-1" x="20" y="120" width="5" height="5"/>
      <rect class="cls-1" x="15" y="120" width="5" height="5"/>
      <rect class="cls-6" x="10" y="120" width="5" height="5"/>
      <rect class="cls-6" x="65" y="115" width="5" height="5"/>
      <rect class="cls-6" x="60" y="115" width="5" height="5"/>
      <rect class="cls-6" x="55" y="115" width="5" height="5"/>
      <rect class="cls-1" x="50" y="115" width="5" height="5"/>
      <rect class="cls-2" x="45" y="115" width="5" height="5"/>
      <rect class="cls-1" x="40" y="115" width="5" height="5"/>
      <rect class="cls-1" x="35" y="115" width="5" height="5"/>
      <rect class="cls-1" x="30" y="115" width="5" height="5"/>
      <rect class="cls-2" x="25" y="115" width="5" height="5"/>
      <rect class="cls-1" x="20" y="115" width="5" height="5"/>
      <rect class="cls-1" x="15" y="115" width="5" height="5"/>
      <rect class="cls-6" x="10" y="115" width="5" height="5"/>
      <rect class="cls-7" x="70" y="110" width="5" height="5"/>
      <rect class="cls-6" x="65" y="110" width="5" height="5"/>
      <rect class="cls-6" x="60" y="110" width="5" height="5"/>
      <rect class="cls-6" x="55" y="110" width="5" height="5"/>
      <rect class="cls-1" x="50" y="110" width="5" height="5"/>
      <rect class="cls-1" x="45" y="110" width="5" height="5"/>
      <rect class="cls-1" x="40" y="110" width="5" height="5"/>
      <rect class="cls-1" x="35" y="110" width="5" height="5"/>
      <rect class="cls-1" x="30" y="110" width="5" height="5"/>
      <rect class="cls-1" x="25" y="110" width="5" height="5"/>
      <rect class="cls-1" x="20" y="110" width="5" height="5"/>
      <rect class="cls-6" x="15" y="110" width="5" height="5"/>
      <rect class="cls-6" x="70" y="105" width="5" height="5"/>
      <rect class="cls-6" x="65" y="105" width="5" height="5"/>
      <rect class="cls-6" x="60" y="105" width="5" height="5"/>
      <rect class="cls-6" x="55" y="105" width="5" height="5"/>
      <rect class="cls-1" x="50" y="105" width="5" height="5"/>
      <rect class="cls-1" x="45" y="105" width="5" height="5"/>
      <rect class="cls-1" x="40" y="105" width="5" height="5"/>
      <rect class="cls-1" x="35" y="105" width="5" height="5"/>
      <rect class="cls-1" x="30" y="105" width="5" height="5"/>
      <rect class="cls-1" x="25" y="105" width="5" height="5"/>
      <rect class="cls-1" x="20" y="105" width="5" height="5"/>
      <rect class="cls-6" x="15" y="105" width="5" height="5"/>
      <rect class="cls-6" x="70" y="100" width="5" height="5"/>
      <rect class="cls-6" x="65" y="100" width="5" height="5"/>
      <rect class="cls-6" x="60" y="100" width="5" height="5"/>
      <rect class="cls-2" x="55" y="100" width="5" height="5"/>
      <rect class="cls-1" x="50" y="100" width="5" height="5"/>
      <rect class="cls-1" x="45" y="100" width="5" height="5"/>
      <rect class="cls-1" x="40" y="100" width="5" height="5"/>
      <rect class="cls-2" x="35" y="100" width="5" height="5"/>
      <rect class="cls-1" x="30" y="100" width="5" height="5"/>
      <rect class="cls-1" x="25" y="100" width="5" height="5"/>
      <rect class="cls-1" x="20" y="100" width="5" height="5"/>
      <rect class="cls-6" x="15" y="100" width="5" height="5"/>
      <rect class="cls-6" x="70" y="95" width="5" height="5"/>
      <rect class="cls-6" x="65" y="95" width="5" height="5"/>
      <rect class="cls-6" x="60" y="95" width="5" height="5"/>
      <rect class="cls-1" x="55" y="95" width="5" height="5"/>
      <rect class="cls-1" x="50" y="95" width="5" height="5"/>
      <rect class="cls-1" x="45" y="95" width="5" height="5"/>
      <rect class="cls-1" x="40" y="95" width="5" height="5"/>
      <rect class="cls-1" x="35" y="95" width="5" height="5"/>
      <rect class="cls-1" x="30" y="95" width="5" height="5"/>
      <rect class="cls-1" x="25" y="95" width="5" height="5"/>
      <rect class="cls-1" x="20" y="95" width="5" height="5"/>
      <rect class="cls-6" x="15" y="95" width="5" height="5"/>
      <rect class="cls-6" x="70" y="90" width="5" height="5"/>
      <rect class="cls-6" x="65" y="90" width="5" height="5"/>
      <rect class="cls-6" x="60" y="90" width="5" height="5"/>
      <rect class="cls-1" x="55" y="90" width="5" height="5"/>
      <rect class="cls-1" x="50" y="90" width="5" height="5"/>
      <rect class="cls-2" x="45" y="90" width="5" height="5"/>
      <rect class="cls-1" x="40" y="90" width="5" height="5"/>
      <rect class="cls-1" x="35" y="90" width="5" height="5"/>
      <rect class="cls-1" x="30" y="90" width="5" height="5"/>
      <rect class="cls-2" x="25" y="90" width="5" height="5"/>
      <rect class="cls-1" x="20" y="90" width="5" height="5"/>
      <rect class="cls-6" x="15" y="90" width="5" height="5"/>
      <rect class="cls-6" x="70" y="85" width="5" height="5"/>
      <rect class="cls-6" x="65" y="85" width="5" height="5"/>
      <rect class="cls-6" x="60" y="85" width="5" height="5"/>
      <rect class="cls-2" x="55" y="85" width="5" height="5"/>
      <rect class="cls-1" x="50" y="85" width="5" height="5"/>
      <rect class="cls-1" x="45" y="85" width="5" height="5"/>
      <rect class="cls-1" x="40" y="85" width="5" height="5"/>
      <rect class="cls-2" x="35" y="85" width="5" height="5"/>
      <rect class="cls-1" x="30" y="85" width="5" height="5"/>
      <rect class="cls-1" x="25" y="85" width="5" height="5"/>
      <rect class="cls-1" x="20" y="85" width="5" height="5"/>
      <rect class="cls-6" x="15" y="85" width="5" height="5"/>
      <rect class="cls-6" x="75" y="80" width="5" height="5"/>
      <rect class="cls-6" x="70" y="80" width="5" height="5"/>
      <rect class="cls-6" x="65" y="80" width="5" height="5"/>
      <rect class="cls-6" x="60" y="80" width="5" height="5"/>
      <rect class="cls-1" x="55" y="80" width="5" height="5"/>
      <rect class="cls-2" x="50" y="80" width="5" height="5"/>
      <rect class="cls-1" x="45" y="80" width="5" height="5"/>
      <rect class="cls-2" x="40" y="80" width="5" height="5"/>
      <rect class="cls-1" x="35" y="80" width="5" height="5"/>
      <rect class="cls-2" x="30" y="80" width="5" height="5"/>
      <rect class="cls-1" x="25" y="80" width="5" height="5"/>
      <rect class="cls-6" x="20" y="80" width="5" height="5"/>
      <rect class="cls-6" x="75" y="75" width="5" height="5"/>
      <rect class="cls-6" x="70" y="75" width="5" height="5"/>
      <rect class="cls-6" x="65" y="75" width="5" height="5"/>
      <rect class="cls-4" x="60" y="75" width="5" height="5"/>
      <rect class="cls-2" x="55" y="75" width="5" height="5"/>
      <rect class="cls-1" x="50" y="75" width="5" height="5"/>
      <rect class="cls-2" x="45" y="75" width="5" height="5"/>
      <rect class="cls-1" x="40" y="75" width="5" height="5"/>
      <rect class="cls-2" x="35" y="75" width="5" height="5"/>
      <rect class="cls-1" x="30" y="75" width="5" height="5"/>
      <rect class="cls-2" x="25" y="75" width="5" height="5"/>
      <rect class="cls-6" x="20" y="75" width="5" height="5"/>
      <rect class="cls-6" x="75" y="70" width="5" height="5"/>
      <rect class="cls-6" x="70" y="70" width="5" height="5"/>
      <rect class="cls-6" x="65" y="70" width="5" height="5"/>
      <rect class="cls-2" x="60" y="70" width="5" height="5"/>
      <rect class="cls-2" x="55" y="70" width="5" height="5"/>
      <rect class="cls-2" x="50" y="70" width="5" height="5"/>
      <rect class="cls-1" x="45" y="70" width="5" height="5"/>
      <rect class="cls-2" x="40" y="70" width="5" height="5"/>
      <rect class="cls-2" x="35" y="70" width="5" height="5"/>
      <rect class="cls-2" x="30" y="70" width="5" height="5"/>
      <rect class="cls-1" x="25" y="70" width="5" height="5"/>
      <rect class="cls-6" x="20" y="70" width="5" height="5"/>
      <rect class="cls-6" x="75" y="65" width="5" height="5"/>
      <rect class="cls-6" x="70" y="65" width="5" height="5"/>
      <rect class="cls-6" x="65" y="65" width="5" height="5"/>
      <rect class="cls-2" x="60" y="65" width="5" height="5"/>
      <rect class="cls-1" x="55" y="65" width="5" height="5"/>
      <rect class="cls-2" x="50" y="65" width="5" height="5"/>
      <rect class="cls-2" x="45" y="65" width="5" height="5"/>
      <rect class="cls-2" x="40" y="65" width="5" height="5"/>
      <rect class="cls-1" x="35" y="65" width="5" height="5"/>
      <rect class="cls-2" x="30" y="65" width="5" height="5"/>
      <rect class="cls-2" x="25" y="65" width="5" height="5"/>
      <rect class="cls-6" x="20" y="65" width="5" height="5"/>
      <rect class="cls-6" x="75" y="60" width="5" height="5"/>
      <rect class="cls-6" x="70" y="60" width="5" height="5"/>
      <rect class="cls-6" x="65" y="60" width="5" height="5"/>
      <rect class="cls-2" x="60" y="60" width="5" height="5"/>
      <rect class="cls-2" x="55" y="60" width="5" height="5"/>
      <rect class="cls-2" x="50" y="60" width="5" height="5"/>
      <rect class="cls-2" x="45" y="60" width="5" height="5"/>
      <rect class="cls-2" x="40" y="60" width="5" height="5"/>
      <rect class="cls-2" x="35" y="60" width="5" height="5"/>
      <rect class="cls-2" x="30" y="60" width="5" height="5"/>
      <rect class="cls-2" x="25" y="60" width="5" height="5"/>
      <rect class="cls-6" x="20" y="60" width="5" height="5"/>
      <rect class="cls-6" x="75" y="55" width="5" height="5"/>
      <rect class="cls-6" x="70" y="55" width="5" height="5"/>
      <rect class="cls-6" x="65" y="55" width="5" height="5"/>
      <rect class="cls-2" x="60" y="55" width="5" height="5"/>
      <rect class="cls-2" x="55" y="55" width="5" height="5"/>
      <rect class="cls-2" x="50" y="55" width="5" height="5"/>
      <rect class="cls-1" x="45" y="55" width="5" height="5"/>
      <rect class="cls-2" x="40" y="55" width="5" height="5"/>
      <rect class="cls-2" x="35" y="55" width="5" height="5"/>
      <rect class="cls-2" x="30" y="55" width="5" height="5"/>
      <rect class="cls-1" x="25" y="55" width="5" height="5"/>
      <rect class="cls-6" x="20" y="55" width="5" height="5"/>
      <rect class="cls-6" x="80" y="50" width="5" height="5"/>
      <rect class="cls-6" x="75" y="50" width="5" height="5"/>
      <rect class="cls-6" x="70" y="50" width="5" height="5"/>
      <rect class="cls-6" x="65" y="50" width="5" height="5"/>
      <rect class="cls-2" x="60" y="50" width="5" height="5"/>
      <rect class="cls-2" x="55" y="50" width="5" height="5"/>
      <rect class="cls-2" x="50" y="50" width="5" height="5"/>
      <rect class="cls-2" x="45" y="50" width="5" height="5"/>
      <rect class="cls-2" x="40" y="50" width="5" height="5"/>
      <rect class="cls-2" x="35" y="50" width="5" height="5"/>
      <rect class="cls-2" x="30" y="50" width="5" height="5"/>
      <rect class="cls-6" x="25" y="50" width="5" height="5"/>
      <rect class="cls-6" x="20" y="50" width="5" height="5"/>
      <rect class="cls-6" x="80" y="45" width="5" height="5"/>
      <rect class="cls-6" x="75" y="45" width="5" height="5"/>
      <rect class="cls-6" x="70" y="45" width="5" height="5"/>
      <rect class="cls-2" x="65" y="45" width="5" height="5"/>
      <rect class="cls-2" x="60" y="45" width="5" height="5"/>
      <rect class="cls-2" x="55" y="45" width="5" height="5"/>
      <rect class="cls-2" x="50" y="45" width="5" height="5"/>
      <rect class="cls-2" x="45" y="45" width="5" height="5"/>
      <rect class="cls-2" x="40" y="45" width="5" height="5"/>
      <rect class="cls-2" x="35" y="45" width="5" height="5"/>
      <rect class="cls-2" x="30" y="45" width="5" height="5"/>
      <rect class="cls-6" x="25" y="45" width="5" height="5"/>
      <rect class="cls-6" x="20" y="45" width="5" height="5"/>
      <rect class="cls-6" x="15" y="45" width="5" height="5"/>
      <rect class="cls-6" x="10" y="45" width="5" height="5"/>
      <rect class="cls-6" x="80" y="40" width="5" height="5"/>
      <rect class="cls-6" x="75" y="40" width="5" height="5"/>
      <rect class="cls-6" x="70" y="40" width="5" height="5"/>
      <rect class="cls-2" x="65" y="40" width="5" height="5"/>
      <rect class="cls-2" x="60" y="40" width="5" height="5"/>
      <rect class="cls-1" x="55" y="40" width="5" height="5"/>
      <rect class="cls-2" x="50" y="40" width="5" height="5"/>
      <rect class="cls-2" x="45" y="40" width="5" height="5"/>
      <rect class="cls-2" x="40" y="40" width="5" height="5"/>
      <rect class="cls-1" x="35" y="40" width="5" height="5"/>
      <rect class="cls-2" x="30" y="40" width="5" height="5"/>
      <rect class="cls-6" x="25" y="40" width="5" height="5"/>
      <rect class="cls-6" x="20" y="40" width="5" height="5"/>
      <rect class="cls-6" x="15" y="40" width="5" height="5"/>
      <rect class="cls-6" x="10" y="40" width="5" height="5"/>
      <rect class="cls-6" x="5" y="40" width="5" height="5"/>
      <rect class="cls-6" x="80" y="35" width="5" height="5"/>
      <rect class="cls-6" x="75" y="35" width="5" height="5"/>
      <rect class="cls-6" x="70" y="35" width="5" height="5"/>
      <rect class="cls-2" x="65" y="35" width="5" height="5"/>
      <rect class="cls-2" x="60" y="35" width="5" height="5"/>
      <rect class="cls-2" x="55" y="35" width="5" height="5"/>
      <rect class="cls-2" x="50" y="35" width="5" height="5"/>
      <rect class="cls-2" x="45" y="35" width="5" height="5"/>
      <rect class="cls-2" x="40" y="35" width="5" height="5"/>
      <rect class="cls-2" x="35" y="35" width="5" height="5"/>
      <rect class="cls-2" x="30" y="35" width="5" height="5"/>
      <rect class="cls-6" x="25" y="35" width="5" height="5"/>
      <rect class="cls-6" x="20" y="35" width="5" height="5"/>
      <rect class="cls-6" x="15" y="35" width="5" height="5"/>
      <rect class="cls-6" x="10" y="35" width="5" height="5"/>
      <rect class="cls-6" x="5" y="35" width="5" height="5"/>
      <rect class="cls-6" y="35" width="5" height="5"/>
      <rect class="cls-6" x="80" y="30" width="5" height="5"/>
      <rect class="cls-6" x="75" y="30" width="5" height="5"/>
      <rect class="cls-6" x="70" y="30" width="5" height="5"/>
      <rect class="cls-2" x="65" y="30" width="5" height="5"/>
      <rect class="cls-2" x="60" y="30" width="5" height="5"/>
      <rect class="cls-2" x="55" y="30" width="5" height="5"/>
      <rect class="cls-2" x="50" y="30" width="5" height="5"/>
      <rect class="cls-2" x="45" y="30" width="5" height="5"/>
      <rect class="cls-2" x="40" y="30" width="5" height="5"/>
      <rect class="cls-2" x="35" y="30" width="5" height="5"/>
      <rect class="cls-2" x="30" y="30" width="5" height="5"/>
      <rect class="cls-2" x="25" y="30" width="5" height="5"/>
      <rect class="cls-2" x="20" y="30" width="5" height="5"/>
      <rect class="cls-2" x="15" y="30" width="5" height="5"/>
      <rect class="cls-2" x="10" y="30" width="5" height="5"/>
      <rect class="cls-2" x="5" y="30" width="5" height="5"/>
      <rect class="cls-6" y="30" width="5" height="5"/>
      <rect class="cls-6" x="80" y="25" width="5" height="5"/>
      <rect class="cls-6" x="75" y="25" width="5" height="5"/>
      <rect class="cls-6" x="70" y="25" width="5" height="5"/>
      <rect class="cls-2" x="65" y="25" width="5" height="5"/>
      <rect class="cls-2" x="60" y="25" width="5" height="5"/>
      <rect class="cls-2" x="55" y="25" width="5" height="5"/>
      <rect class="cls-2" x="50" y="25" width="5" height="5"/>
      <rect class="cls-2" x="45" y="25" width="5" height="5"/>
      <rect class="cls-2" x="40" y="25" width="5" height="5"/>
      <rect class="cls-2" x="35" y="25" width="5" height="5"/>
      <rect class="cls-2" x="30" y="25" width="5" height="5"/>
      <rect class="cls-2" x="25" y="25" width="5" height="5"/>
      <rect class="cls-2" x="20" y="25" width="5" height="5"/>
      <rect class="cls-2" x="15" y="25" width="5" height="5"/>
      <rect class="cls-2" x="10" y="25" width="5" height="5"/>
      <rect class="cls-2" x="5" y="25" width="5" height="5"/>
      <rect class="cls-6" y="25" width="5" height="5"/>
      <rect class="cls-6" x="85" y="20" width="5" height="5"/>
      <rect class="cls-6" x="80" y="20" width="5" height="5"/>
      <rect class="cls-6" x="75" y="20" width="5" height="5"/>
      <rect class="cls-6" x="70" y="20" width="5" height="5"/>
      <rect class="cls-2" x="65" y="20" width="5" height="5"/>
      <rect class="cls-2" x="60" y="20" width="5" height="5"/>
      <rect class="cls-2" x="55" y="20" width="5" height="5"/>
      <rect class="cls-2" x="50" y="20" width="5" height="5"/>
      <rect class="cls-2" x="45" y="20" width="5" height="5"/>
      <rect class="cls-2" x="40" y="20" width="5" height="5"/>
      <rect class="cls-2" x="35" y="20" width="5" height="5"/>
      <rect class="cls-2" x="30" y="20" width="5" height="5"/>
      <rect class="cls-2" x="25" y="20" width="5" height="5"/>
      <rect class="cls-2" x="20" y="20" width="5" height="5"/>
      <rect class="cls-2" x="15" y="20" width="5" height="5"/>
      <rect class="cls-2" x="10" y="20" width="5" height="5"/>
      <rect class="cls-6" x="5" y="20" width="5" height="5"/>
      <rect class="cls-6" y="20" width="5" height="5"/>
      <rect class="cls-6" x="85" y="15" width="5" height="5"/>
      <rect class="cls-6" x="80" y="15" width="5" height="5"/>
      <rect class="cls-6" x="75" y="15" width="5" height="5"/>
      <rect class="cls-2" x="70" y="15" width="5" height="5"/>
      <rect class="cls-2" x="65" y="15" width="5" height="5"/>
      <rect class="cls-2" x="60" y="15" width="5" height="5"/>
      <rect class="cls-2" x="55" y="15" width="5" height="5"/>
      <rect class="cls-2" x="50" y="15" width="5" height="5"/>
      <rect class="cls-2" x="45" y="15" width="5" height="5"/>
      <rect class="cls-2" x="40" y="15" width="5" height="5"/>
      <rect class="cls-2" x="35" y="15" width="5" height="5"/>
      <rect class="cls-2" x="30" y="15" width="5" height="5"/>
      <rect class="cls-2" x="25" y="15" width="5" height="5"/>
      <rect class="cls-6" x="20" y="15" width="5" height="5"/>
      <rect class="cls-6" x="15" y="15" width="5" height="5"/>
      <rect class="cls-6" x="10" y="15" width="5" height="5"/>
      <rect class="cls-6" x="85" y="10" width="5" height="5"/>
      <rect class="cls-6" x="80" y="10" width="5" height="5"/>
      <rect class="cls-6" x="75" y="10" width="5" height="5"/>
      <rect class="cls-2" x="70" y="10" width="5" height="5"/>
      <rect class="cls-2" x="65" y="10" width="5" height="5"/>
      <rect class="cls-2" x="60" y="10" width="5" height="5"/>
      <rect class="cls-2" x="55" y="10" width="5" height="5"/>
      <rect class="cls-2" x="50" y="10" width="5" height="5"/>
      <rect class="cls-2" x="45" y="10" width="5" height="5"/>
      <rect class="cls-6" x="40" y="10" width="5" height="5"/>
      <rect class="cls-6" x="35" y="10" width="5" height="5"/>
      <rect class="cls-6" x="30" y="10" width="5" height="5"/>
      <rect class="cls-6" x="25" y="10" width="5" height="5"/>
      <rect class="cls-6" x="80" y="5" width="5" height="5"/>
      <rect class="cls-6" x="75" y="5" width="5" height="5"/>
      <rect class="cls-2" x="70" y="5" width="5" height="5"/>
      <rect class="cls-2" x="65" y="5" width="5" height="5"/>
      <rect class="cls-6" x="60" y="5" width="5" height="5"/>
      <rect class="cls-6" x="55" y="5" width="5" height="5"/>
      <rect class="cls-6" x="50" y="5" width="5" height="5"/>
      <rect class="cls-6" x="45" y="5" width="5" height="5"/>
      <rect class="cls-5" x="80" width="5" height="5"/>
      <rect class="cls-6" x="75" width="5" height="5"/>
      <rect class="cls-6" x="70" width="5" height="5"/>
      <rect class="cls-6" x="65" width="5" height="5"/>
    </g>
  </g>
</svg>