<?xml version="1.0" encoding="UTF-8"?>
<svg id="_レイヤー_2" data-name="レイヤー 2" xmlns="http://www.w3.org/2000/svg" viewBox="0 0 655 125">
  <defs>
    <style>
      .cls-1 {
        fill: #fffed2;
      }

      .cls-2 {
        fill: #f5bbb1;
      }

      .cls-3 {
        fill: #f7fad3;
      }

      .cls-4 {
        fill: #018cff;
      }
    </style>
  </defs>
  <g id="_レイヤー_1-2" data-name="レイヤー 1">
    <g>
      <rect class="cls-3" x="260" y="80" width="5" height="5"/>
      <g>
        <rect class="cls-1" x="470" y="60" width="5" height="5"/>
        <path class="cls-1" d="M465,60h-5v5h-5v5h-5v10h5v5h-5v-5h-5v20h-5v5h-35v-5h-5v-20h-5v5h-5v-5h-15v30h5v5h75v-5h10v-10h-5v-5h5v5h5v-35h-5v-5ZM380,95h5v5h-5v-5ZM465,75h-5v-5h5v5Z"/>
        <rect class="cls-1" x="450" y="60" width="5" height="5"/>
        <rect class="cls-1" x="465" y="55" width="5" height="5"/>
        <rect class="cls-1" x="455" y="55" width="5" height="5"/>
        <rect class="cls-1" x="445" y="55" width="5" height="5"/>
        <rect class="cls-1" x="435" y="55" width="5" height="5"/>
        <rect class="cls-1" x="425" y="55" width="5" height="5"/>
        <rect class="cls-1" x="415" y="55" width="5" height="5"/>
        <rect class="cls-1" x="405" y="55" width="5" height="5"/>
        <rect class="cls-1" x="395" y="55" width="5" height="5"/>
        <rect class="cls-1" x="400" y="50" width="5" height="5"/>
        <rect class="cls-1" x="390" y="45" width="5" height="5"/>
        <rect class="cls-1" x="400" y="35" width="5" height="5"/>
        <rect class="cls-1" x="470" y="20" width="5" height="5"/>
        <rect class="cls-1" x="410" y="20" width="5" height="5"/>
        <rect class="cls-1" x="390" y="20" width="5" height="5"/>
        <path class="cls-1" d="M345,105h-5v-15h5v-25h-5v5h-5v-5h-5v-5h-5v5h-5v25h-5v15h-15v10h55v-10h-10ZM325,95h5v5h-5v-5ZM340,85h-5v-5h5v5ZM325,70h5v5h-5v-5Z"/>
        <rect class="cls-1" x="335" y="60" width="5" height="5"/>
        <rect class="cls-1" x="340" y="55" width="5" height="5"/>
        <rect class="cls-1" x="330" y="55" width="5" height="5"/>
        <rect class="cls-1" x="335" y="50" width="5" height="5"/>
        <rect class="cls-1" x="345" y="45" width="5" height="5"/>
        <rect class="cls-1" x="325" y="45" width="5" height="5"/>
        <rect class="cls-1" x="335" y="35" width="5" height="5"/>
        <rect class="cls-1" x="345" y="20" width="5" height="5"/>
        <path class="cls-1" d="M150,105h-5v-15h5v-25h-5v5h-5v-5h-5v-5h-5v5h-5v25h-5v15h-15v10h55v-10h-10ZM130,95h5v5h-5v-5ZM145,85h-5v-5h5v5ZM130,70h5v5h-5v-5Z"/>
        <rect class="cls-1" x="140" y="60" width="5" height="5"/>
        <rect class="cls-1" x="145" y="55" width="5" height="5"/>
        <rect class="cls-1" x="135" y="55" width="5" height="5"/>
        <rect class="cls-1" x="140" y="50" width="5" height="5"/>
        <rect class="cls-1" x="150" y="45" width="5" height="5"/>
        <rect class="cls-1" x="130" y="45" width="5" height="5"/>
        <rect class="cls-1" x="140" y="35" width="5" height="5"/>
        <rect class="cls-1" x="150" y="20" width="5" height="5"/>
        <polygon class="cls-1" points="185 85 185 90 185 95 185 100 185 105 180 105 180 110 180 115 185 115 190 115 190 110 190 105 195 105 195 100 195 95 195 90 195 85 190 85 190 80 185 80 185 85"/>
        <path class="cls-1" d="M275,65v20h-5v10h-5v5h-5v-5h5v-10h-5v-15h-10v-5h-5v-5h-5v5h-5v5h-5v10h5v10h5v5h5v5h-5v5h5v10h30v-10h5v-25h5v-5h-5v-5h5v-10h-5v5h-5ZM255,85h-5v-5h5v5ZM245,70v5h-5v-5h5Z"/>
        <rect class="cls-1" x="585" y="60" width="5" height="5"/>
        <path class="cls-1" d="M580,60h-5v5h-5v5h-5v10h5v5h-5v-5h-5v25h-5v10h25v-15h-5v-5h5v5h5v-25h5v-5h-5v-5h-5v-5ZM580,75h-5v-5h5v5Z"/>
        <rect class="cls-1" x="565" y="60" width="5" height="5"/>
        <rect class="cls-1" x="515" y="60" width="5" height="5"/>
        <path class="cls-1" d="M510,60h-5v5h-5v5h-5v10h5v5h-5v10h-5v20h25v-25h5v-5h-5v-5h5v-10h-5v-5h-5v-5ZM510,100h-5v-5h5v5ZM510,75h-5v-5h5v5Z"/>
        <rect class="cls-1" x="250" y="60" width="5" height="5"/>
        <rect class="cls-1" x="230" y="60" width="5" height="5"/>
        <polygon class="cls-1" points="190 65 190 70 190 75 190 80 195 80 200 80 200 75 200 70 200 65 195 65 195 60 190 60 190 65"/>
        <rect class="cls-1" x="30" y="60" width="5" height="5"/>
        <path class="cls-1" d="M25,60h-5v5h-5v5h-5v10h5v5h-5v15h-5v15h25v-20h5v-10h-5v-5h5v-10h-5v-5h-5v-5ZM25,100h-5v-5h5v5ZM25,75h-5v-5h5v5Z"/>
        <rect class="cls-1" x="580" y="55" width="5" height="5"/>
        <rect class="cls-1" x="570" y="55" width="5" height="5"/>
        <rect class="cls-1" x="560" y="55" width="5" height="5"/>
        <rect class="cls-1" x="550" y="55" width="5" height="5"/>
        <rect class="cls-1" x="540" y="55" width="5" height="5"/>
        <rect class="cls-1" x="530" y="55" width="5" height="5"/>
        <rect class="cls-1" x="520" y="55" width="5" height="5"/>
        <rect class="cls-1" x="510" y="55" width="5" height="5"/>
        <rect class="cls-1" x="500" y="55" width="5" height="5"/>
        <rect class="cls-1" x="275" y="55" width="5" height="5"/>
        <rect class="cls-1" x="245" y="55" width="5" height="5"/>
        <rect class="cls-1" x="235" y="55" width="5" height="5"/>
        <rect class="cls-1" x="225" y="55" width="5" height="5"/>
        <rect class="cls-1" x="195" y="55" width="5" height="5"/>
        <rect class="cls-1" x="85" y="55" width="5" height="5"/>
        <rect class="cls-1" x="75" y="55" width="5" height="5"/>
        <rect class="cls-1" x="65" y="55" width="5" height="5"/>
        <rect class="cls-1" x="55" y="55" width="5" height="5"/>
        <rect class="cls-1" x="45" y="55" width="5" height="5"/>
        <rect class="cls-1" x="35" y="55" width="5" height="5"/>
        <rect class="cls-1" x="25" y="55" width="5" height="5"/>
        <rect class="cls-1" x="15" y="55" width="5" height="5"/>
        <rect class="cls-1" x="575" y="50" width="5" height="5"/>
        <rect class="cls-1" x="515" y="50" width="5" height="5"/>
        <rect class="cls-1" x="280" y="50" width="5" height="5"/>
        <rect class="cls-1" x="240" y="50" width="5" height="5"/>
        <rect class="cls-1" x="220" y="50" width="5" height="5"/>
        <rect class="cls-1" x="200" y="50" width="5" height="5"/>
        <rect class="cls-1" x="20" y="50" width="5" height="5"/>
        <rect class="cls-1" x="585" y="45" width="5" height="5"/>
        <rect class="cls-1" x="505" y="45" width="5" height="5"/>
        <rect class="cls-1" x="230" y="45" width="5" height="5"/>
        <rect class="cls-1" x="30" y="45" width="5" height="5"/>
        <rect class="cls-1" x="575" y="35" width="5" height="5"/>
        <rect class="cls-1" x="515" y="35" width="5" height="5"/>
        <rect class="cls-1" x="280" y="35" width="5" height="5"/>
        <rect class="cls-1" x="240" y="35" width="5" height="5"/>
        <rect class="cls-1" x="220" y="35" width="5" height="5"/>
        <rect class="cls-1" x="200" y="35" width="5" height="5"/>
        <rect class="cls-1" x="20" y="35" width="5" height="5"/>
        <rect class="cls-1" x="585" y="20" width="5" height="5"/>
        <rect class="cls-1" x="525" y="20" width="5" height="5"/>
        <rect class="cls-1" x="505" y="20" width="5" height="5"/>
        <rect class="cls-1" x="290" y="20" width="5" height="5"/>
        <rect class="cls-1" x="230" y="20" width="5" height="5"/>
        <rect class="cls-1" x="210" y="20" width="5" height="5"/>
        <rect class="cls-1" x="30" y="20" width="5" height="5"/>
        <polygon class="cls-1" points="625 95 620 95 615 95 610 95 610 100 605 100 605 105 605 110 605 115 610 115 615 115 620 115 625 115 625 110 625 105 630 105 630 100 625 100 625 95"/>
        <polygon class="cls-1" points="625 65 620 65 620 70 615 70 610 70 610 75 610 80 610 85 615 85 615 80 620 80 620 85 625 85 630 85 630 80 630 75 625 75 625 70 630 70 630 75 635 75 635 70 635 65 630 65 630 60 625 60 625 65"/>
        <rect class="cls-1" x="615" y="60" width="5" height="5"/>
        <rect class="cls-1" x="630" y="55" width="5" height="5"/>
        <rect class="cls-1" x="620" y="55" width="5" height="5"/>
        <rect class="cls-1" x="625" y="50" width="5" height="5"/>
        <rect class="cls-1" x="615" y="45" width="5" height="5"/>
        <rect class="cls-1" x="625" y="35" width="5" height="5"/>
        <rect class="cls-1" x="635" y="20" width="5" height="5"/>
      </g>
      <g>
        <rect class="cls-2" x="460" y="95" width="5" height="5"/>
        <rect class="cls-2" x="380" y="95" width="5" height="5"/>
        <rect class="cls-2" x="450" y="80" width="5" height="5"/>
        <rect class="cls-2" x="390" y="80" width="5" height="5"/>
        <rect class="cls-2" x="460" y="70" width="5" height="5"/>
        <rect class="cls-2" x="470" y="65" width="5" height="5"/>
        <rect class="cls-2" x="450" y="65" width="5" height="5"/>
        <rect class="cls-2" x="465" y="60" width="5" height="5"/>
        <rect class="cls-2" x="455" y="60" width="5" height="5"/>
        <rect class="cls-2" x="445" y="60" width="5" height="5"/>
        <rect class="cls-2" x="460" y="55" width="5" height="5"/>
        <rect class="cls-2" x="450" y="55" width="5" height="5"/>
        <rect class="cls-2" x="440" y="55" width="5" height="5"/>
        <rect class="cls-2" x="430" y="55" width="5" height="5"/>
        <rect class="cls-2" x="420" y="55" width="5" height="5"/>
        <rect class="cls-2" x="400" y="55" width="5" height="5"/>
        <path class="cls-2" d="M475,5h-80v5h-5v10h5v5h-5v-5h-5v35h5v5h5v-5h5v-5h5v5h5v5h5v-10h-5v-30h5v-10h40v25h25V10h-5v-5ZM390,50v-5h5v5h-5ZM405,40h-5v-5h5v5ZM475,25h-5v-5h5v5Z"/>
        <rect class="cls-2" x="325" y="95" width="5" height="5"/>
        <rect class="cls-2" x="335" y="80" width="5" height="5"/>
        <rect class="cls-2" x="325" y="70" width="5" height="5"/>
        <rect class="cls-2" x="335" y="65" width="5" height="5"/>
        <rect class="cls-2" x="340" y="60" width="5" height="5"/>
        <rect class="cls-2" x="330" y="60" width="5" height="5"/>
        <rect class="cls-2" x="320" y="60" width="5" height="5"/>
        <rect class="cls-2" x="335" y="55" width="5" height="5"/>
        <path class="cls-2" d="M360,5h-45v10h15v20h-5v10h5v5h-5v10h5v-5h5v-5h5v5h10v-5h-5v-5h5v-15h5v-15h15V5h-10ZM340,35v5h-5v-5h5ZM350,25h-5v-5h5v5Z"/>
        <rect class="cls-2" x="130" y="95" width="5" height="5"/>
        <rect class="cls-2" x="140" y="80" width="5" height="5"/>
        <rect class="cls-2" x="130" y="70" width="5" height="5"/>
        <rect class="cls-2" x="140" y="65" width="5" height="5"/>
        <rect class="cls-2" x="145" y="60" width="5" height="5"/>
        <rect class="cls-2" x="135" y="60" width="5" height="5"/>
        <rect class="cls-2" x="125" y="60" width="5" height="5"/>
        <rect class="cls-2" x="140" y="55" width="5" height="5"/>
        <path class="cls-2" d="M165,5h-45v10h15v20h-5v10h5v5h-5v10h5v-5h5v-5h5v5h10v-5h-5v-5h5v-15h5v-15h15V5h-10ZM145,35v5h-5v-5h5ZM155,25h-5v-5h5v5Z"/>
        <rect class="cls-2" x="575" y="95" width="5" height="5"/>
        <rect class="cls-2" x="505" y="95" width="5" height="5"/>
        <rect class="cls-2" x="260" y="95" width="5" height="5"/>
        <rect class="cls-2" x="240" y="95" width="5" height="5"/>
        <rect class="cls-2" x="20" y="95" width="5" height="5"/>
        <rect class="cls-2" x="565" y="80" width="5" height="5"/>
        <rect class="cls-2" x="515" y="80" width="5" height="5"/>
        <rect class="cls-2" x="495" y="80" width="5" height="5"/>
        <rect class="cls-2" x="270" y="80" width="5" height="5"/>
        <rect class="cls-2" x="250" y="80" width="5" height="5"/>
        <rect class="cls-2" x="190" y="80" width="5" height="5"/>
        <rect class="cls-2" x="30" y="80" width="5" height="5"/>
        <rect class="cls-2" x="10" y="80" width="5" height="5"/>
        <rect class="cls-2" x="575" y="70" width="5" height="5"/>
        <rect class="cls-2" x="505" y="70" width="5" height="5"/>
        <rect class="cls-2" x="280" y="70" width="5" height="5"/>
        <rect class="cls-2" x="240" y="70" width="5" height="5"/>
        <rect class="cls-2" x="20" y="70" width="5" height="5"/>
        <rect class="cls-2" x="585" y="65" width="5" height="5"/>
        <rect class="cls-2" x="565" y="65" width="5" height="5"/>
        <rect class="cls-2" x="515" y="65" width="5" height="5"/>
        <rect class="cls-2" x="495" y="65" width="5" height="5"/>
        <rect class="cls-2" x="250" y="65" width="5" height="5"/>
        <rect class="cls-2" x="230" y="65" width="5" height="5"/>
        <rect class="cls-2" x="30" y="65" width="5" height="5"/>
        <rect class="cls-2" x="580" y="60" width="5" height="5"/>
        <rect class="cls-2" x="570" y="60" width="5" height="5"/>
        <rect class="cls-2" x="510" y="60" width="5" height="5"/>
        <rect class="cls-2" x="500" y="60" width="5" height="5"/>
        <rect class="cls-2" x="275" y="60" width="5" height="5"/>
        <rect class="cls-2" x="245" y="60" width="5" height="5"/>
        <rect class="cls-2" x="235" y="60" width="5" height="5"/>
        <rect class="cls-2" x="225" y="60" width="5" height="5"/>
        <rect class="cls-2" x="195" y="60" width="5" height="5"/>
        <rect class="cls-2" x="25" y="60" width="5" height="5"/>
        <rect class="cls-2" x="15" y="60" width="5" height="5"/>
        <rect class="cls-2" x="575" y="55" width="5" height="5"/>
        <rect class="cls-2" x="555" y="55" width="5" height="5"/>
        <rect class="cls-2" x="545" y="55" width="5" height="5"/>
        <rect class="cls-2" x="535" y="55" width="5" height="5"/>
        <rect class="cls-2" x="525" y="55" width="5" height="5"/>
        <rect class="cls-2" x="515" y="55" width="5" height="5"/>
        <rect class="cls-2" x="280" y="55" width="5" height="5"/>
        <rect class="cls-2" x="240" y="55" width="5" height="5"/>
        <path class="cls-2" d="M235,55h5v-5h5v-10h-5v-20h-5v5h-5v-5h5v-10h-5v-5h-30v25h-5v25h5v-5h5v-10h-5v-5h5v-5h10v10h5v-5h5v5h-5v10h5v5h5v5h5v-5ZM210,25v-5h5v5h-5ZM230,45h5v5h-5v-5Z"/>
        <rect class="cls-2" x="190" y="55" width="5" height="5"/>
        <rect class="cls-2" x="80" y="55" width="5" height="5"/>
        <rect class="cls-2" x="70" y="55" width="5" height="5"/>
        <rect class="cls-2" x="60" y="55" width="5" height="5"/>
        <rect class="cls-2" x="50" y="55" width="5" height="5"/>
        <rect class="cls-2" x="40" y="55" width="5" height="5"/>
        <rect class="cls-2" x="20" y="55" width="5" height="5"/>
        <rect class="cls-2" x="245" y="50" width="5" height="5"/>
        <path class="cls-2" d="M590,5h-15v20h-5v25h-5v10h5v-5h5v-5h5v5h5v5h5v-10h-5v-5h10V15h5V5h-10ZM575,35h5v5h-5v-5ZM590,25h-5v-5h5v5Z"/>
        <path class="cls-2" d="M520,5h-15v15h5v5h-5v10h-5v20h5v5h5v-5h5v-5h5v5h5v-25h5v-5h-5v-5h5V5h-10ZM505,50v-5h5v5h-5ZM520,40h-5v-5h5v5Z"/>
        <polygon class="cls-2" points="285 5 285 10 285 15 285 20 285 25 285 30 280 30 280 35 285 35 285 40 280 40 280 45 280 50 285 50 285 55 290 55 290 50 290 45 290 40 290 35 290 30 295 30 295 25 290 25 290 20 295 20 295 15 295 10 295 5 290 5 285 5"/>
        <path class="cls-2" d="M90,5H25v5h-5v25h5v5h-10v15h5v-5h5v5h5v5h5v-5h5v-20h5V15h55V5h-10ZM35,25h-5v-5h5v5ZM35,50h-5v-5h5v5Z"/>
        <rect class="cls-2" x="625" y="95" width="5" height="5"/>
        <rect class="cls-2" x="605" y="95" width="5" height="5"/>
        <rect class="cls-2" x="615" y="80" width="5" height="5"/>
        <rect class="cls-2" x="625" y="70" width="5" height="5"/>
        <rect class="cls-2" x="615" y="65" width="5" height="5"/>
        <rect class="cls-2" x="630" y="60" width="5" height="5"/>
        <rect class="cls-2" x="620" y="60" width="5" height="5"/>
        <rect class="cls-2" x="625" y="55" width="5" height="5"/>
        <path class="cls-2" d="M640,5h-15v5h-5v30h-5v5h5v5h-5v10h5v-5h5v-5h5v5h5v-10h5v-20h-5v-5h5v-5h5V5h-5ZM625,35h5v5h-5v-5Z"/>
      </g>
      <g>
        <polygon class="cls-4" points="495 80 495 80 495 75 490 75 490 80 490 80 490 85 495 85 495 80"/>
        <rect class="cls-4" x="375" y="110" width="5" height="5"/>
        <polygon class="cls-4" points="375 100 375 95 375 90 375 85 375 80 370 80 370 85 370 90 370 95 370 100 370 105 370 110 375 110 375 105 375 100"/>
        <polygon class="cls-4" points="445 95 445 90 445 85 445 80 440 80 440 85 440 90 440 95 440 100 445 100 445 95"/>
        <polygon class="cls-4" points="485 75 485 70 485 65 480 65 480 60 475 60 475 65 475 70 470 70 470 75 470 80 470 85 470 90 470 95 470 100 465 100 465 105 465 110 460 110 455 110 455 115 450 115 445 115 440 115 435 115 430 115 425 115 420 115 415 115 410 115 405 115 400 115 395 115 390 115 385 115 380 115 380 120 385 120 385 125 390 125 395 125 400 125 405 125 410 125 415 125 420 125 425 125 430 125 435 125 440 125 445 125 450 125 455 125 460 125 465 125 465 120 470 120 470 115 475 115 475 110 475 105 480 105 480 100 480 95 480 90 480 85 480 80 485 80 485 75"/>
        <polygon class="cls-4" points="450 75 450 70 450 65 445 65 445 60 440 60 435 60 430 60 425 60 420 60 415 60 410 60 405 60 400 60 395 60 390 60 390 55 385 55 385 50 385 45 385 40 385 35 385 30 385 25 385 20 380 20 380 25 380 30 380 35 380 40 380 45 380 50 380 55 380 60 385 60 385 65 390 65 390 70 395 70 400 70 405 70 410 70 415 70 420 70 425 70 430 70 435 70 440 70 445 70 445 75 445 80 450 80 450 75"/>
        <polygon class="cls-4" points="385 80 390 80 395 80 400 80 400 85 400 90 400 95 400 100 405 100 405 105 410 105 415 105 420 105 425 105 430 105 435 105 440 105 440 100 435 100 430 100 425 100 420 100 415 100 410 100 410 95 410 90 410 85 410 80 405 80 405 75 400 75 395 75 390 75 385 75 380 75 375 75 375 80 380 80 385 80"/>
        <rect class="cls-4" x="470" y="55" width="5" height="5"/>
        <polygon class="cls-4" points="480 20 480 25 480 30 480 35 475 35 470 35 465 35 460 35 455 35 455 30 455 25 455 20 455 15 455 10 450 10 445 10 440 10 435 10 430 10 425 10 420 10 415 10 415 15 415 20 415 25 410 25 410 30 410 35 410 40 410 45 410 50 415 50 415 55 420 55 425 55 430 55 435 55 440 55 445 55 450 55 455 55 460 55 465 55 470 55 470 50 465 50 460 50 455 50 450 50 445 50 440 50 435 50 430 50 425 50 420 50 420 45 420 40 420 35 420 30 420 25 425 25 425 20 430 20 435 20 440 20 445 20 450 20 450 25 450 30 450 35 450 40 455 40 455 45 460 45 465 45 470 45 475 45 480 45 485 45 485 40 490 40 490 35 490 30 490 25 490 20 490 15 485 15 485 10 480 10 480 15 480 20"/>
        <polygon class="cls-4" points="390 15 390 10 385 10 385 15 385 20 390 20 390 15"/>
        <rect class="cls-4" x="475" y="5" width="5" height="5"/>
        <rect class="cls-4" x="390" y="5" width="5" height="5"/>
        <polygon class="cls-4" points="405 5 410 5 415 5 420 5 425 5 430 5 435 5 440 5 445 5 450 5 455 5 460 5 465 5 470 5 475 5 475 0 470 0 465 0 460 0 455 0 450 0 445 0 440 0 435 0 430 0 425 0 420 0 415 0 410 0 405 0 400 0 395 0 395 5 400 5 405 5"/>
        <polygon class="cls-4" points="555 105 550 105 550 110 550 115 550 115 550 120 555 120 555 115 555 115 555 110 555 105"/>
        <polygon class="cls-4" points="245 105 240 105 240 110 240 115 245 115 245 110 245 105"/>
        <polygon class="cls-4" points="560 100 560 95 560 90 560 85 560 80 555 80 555 85 555 90 555 95 555 100 555 105 560 105 560 100"/>
        <polygon class="cls-4" points="320 85 320 80 320 75 320 70 320 65 320 60 315 60 315 65 315 70 315 75 315 80 315 85 315 90 320 90 320 85"/>
        <polygon class="cls-4" points="325 55 325 50 325 45 325 40 325 35 320 35 320 40 320 45 320 50 320 55 320 60 325 60 325 55"/>
        <polygon class="cls-4" points="380 10 380 5 375 5 375 0 370 0 365 0 360 0 355 0 350 0 345 0 340 0 335 0 330 0 325 0 320 0 315 0 310 0 310 5 310 10 310 15 310 20 315 20 315 25 320 25 325 25 325 30 325 35 330 35 330 30 330 25 330 20 330 15 325 15 320 15 315 15 315 10 315 5 320 5 325 5 330 5 335 5 340 5 345 5 350 5 355 5 360 5 365 5 370 5 370 10 370 15 365 15 360 15 355 15 355 20 355 25 355 30 350 30 350 35 350 40 350 45 350 50 350 55 345 55 345 60 350 60 350 60 345 60 345 65 345 70 345 75 345 80 345 85 345 90 340 90 340 95 340 100 340 105 345 105 350 105 355 105 355 110 355 115 350 115 345 115 340 115 335 115 330 115 325 115 320 115 315 115 310 115 305 115 300 115 300 110 300 105 305 105 310 105 315 105 315 100 315 95 315 90 310 90 310 95 310 100 305 100 300 100 295 100 295 105 295 110 295 115 295 120 300 120 300 125 305 125 310 125 315 125 320 125 325 125 330 125 335 125 340 125 345 125 350 125 355 125 360 125 360 120 365 120 365 115 365 110 365 105 365 100 360 100 355 100 350 100 350 95 355 95 355 90 355 85 355 80 355 75 355 70 355 65 355 60 360 60 360 55 360 50 360 45 360 40 360 35 360 30 365 30 365 25 370 25 375 25 375 20 380 20 380 15 380 10"/>
        <polygon class="cls-4" points="125 85 125 80 125 75 125 70 125 65 125 60 120 60 120 65 120 70 120 75 120 80 120 85 120 90 125 90 125 85"/>
        <polygon class="cls-4" points="130 55 130 50 130 45 130 40 130 35 125 35 125 40 125 45 125 50 125 55 125 60 130 60 130 55"/>
        <polygon class="cls-4" points="180 25 180 20 185 20 185 15 185 10 185 5 180 5 180 0 175 0 170 0 165 0 160 0 155 0 150 0 145 0 140 0 135 0 130 0 125 0 120 0 115 0 115 5 115 10 115 15 115 20 120 20 120 25 125 25 130 25 130 30 130 35 135 35 135 30 135 25 135 20 135 15 130 15 125 15 120 15 120 10 120 5 125 5 130 5 135 5 140 5 145 5 150 5 155 5 160 5 165 5 170 5 175 5 175 10 175 15 170 15 165 15 160 15 160 20 160 25 160 30 155 30 155 35 155 40 155 45 155 50 155 55 150 55 150 60 155 60 155 60 150 60 150 65 150 70 150 75 150 80 150 85 150 90 145 90 145 95 145 100 145 105 150 105 155 105 160 105 160 110 160 115 155 115 150 115 145 115 140 115 135 115 130 115 125 115 120 115 115 115 110 115 105 115 105 110 105 105 110 105 115 105 120 105 120 100 120 95 120 90 115 90 115 95 115 100 110 100 105 100 100 100 100 105 100 110 100 115 100 120 105 120 105 125 110 125 115 125 120 125 125 125 130 125 135 125 140 125 145 125 150 125 155 125 160 125 165 125 165 120 170 120 170 115 170 110 170 105 170 100 165 100 160 100 155 100 155 95 160 95 160 90 160 85 160 80 160 75 160 70 160 65 160 60 165 60 165 55 165 50 165 45 165 40 165 35 165 30 170 30 170 25 175 25 180 25"/>
        <polygon class="cls-4" points="240 95 240 90 235 90 235 95 235 100 235 105 240 105 240 100 240 95"/>
        <polygon class="cls-4" points="10 95 10 90 10 85 10 80 10 75 10 70 5 70 5 75 5 80 5 85 5 90 5 95 5 100 10 100 10 95"/>
        <polygon class="cls-4" points="495 90 495 85 490 85 490 90 490 95 495 95 495 90"/>
        <polygon class="cls-4" points="235 80 230 80 230 85 230 90 235 90 235 85 235 80"/>
        <polygon class="cls-4" points="180 85 180 90 180 95 180 100 180 100 180 105 185 105 185 100 185 100 185 95 185 90 185 85 185 80 180 80 180 85"/>
        <polygon class="cls-4" points="600 75 600 70 600 65 600 60 600 55 600 50 605 50 605 45 605 40 605 35 605 30 605 25 605 20 610 20 610 15 610 10 610 5 605 5 605 0 600 0 595 0 590 0 585 0 580 0 575 0 570 0 570 5 570 10 570 15 570 20 570 25 575 25 575 20 575 15 575 10 575 5 580 5 585 5 590 5 595 5 600 5 600 10 600 15 595 15 595 20 595 25 595 30 595 35 595 40 595 45 590 45 590 50 590 55 590 60 590 65 590 70 590 75 585 75 585 80 585 85 585 90 585 95 585 100 580 100 580 105 580 110 580 115 575 115 570 115 565 115 560 115 555 115 555 120 555 125 560 125 565 125 570 125 575 125 580 125 585 125 590 125 590 120 590 115 590 110 590 105 595 105 595 100 595 95 595 90 595 85 595 80 600 80 600 75"/>
        <polygon class="cls-4" points="565 75 565 70 565 65 565 60 560 60 555 60 550 60 545 60 540 60 535 60 530 60 525 60 520 60 520 65 520 70 520 75 520 80 520 85 520 90 515 90 515 95 515 100 515 105 515 110 515 115 510 115 505 115 500 115 495 115 490 115 490 110 490 105 490 100 490 95 485 95 485 100 485 105 485 110 485 115 485 120 490 120 490 125 495 125 500 125 505 125 510 125 515 125 520 125 520 120 525 120 525 115 525 110 525 105 525 100 525 95 530 95 530 90 530 85 530 80 530 75 530 70 535 70 540 70 545 70 550 70 555 70 560 70 560 75 560 80 565 80 565 75"/>
        <polygon class="cls-4" points="295 75 295 70 295 65 295 60 295 55 300 55 300 50 300 45 300 40 300 35 300 30 305 30 305 25 305 20 300 20 300 20 305 20 305 15 305 15 305 10 305 5 300 5 300 0 295 0 290 0 285 0 285 5 290 5 295 5 295 10 295 15 295 20 295 25 295 30 290 30 290 35 290 40 290 45 290 50 290 55 285 55 285 60 285 65 285 70 285 75 285 80 280 80 280 85 280 90 280 95 280 100 280 105 275 105 275 110 275 115 270 115 265 115 260 115 255 115 250 115 245 115 245 120 245 120 245 125 250 125 250 125 255 125 260 125 265 125 270 125 275 125 280 125 285 125 285 120 285 115 285 110 285 105 290 105 290 100 290 95 290 90 290 85 290 80 295 80 295 75"/>
        <rect class="cls-4" x="225" y="75" width="5" height="5"/>
        <polygon class="cls-4" points="490 70 490 70 490 75 495 75 495 70 495 70 495 65 490 65 490 70"/>
        <polygon class="cls-4" points="225 70 225 75 230 75 230 70 230 70 230 65 225 65 225 70 225 70"/>
        <polygon class="cls-4" points="100 65 100 60 100 55 100 50 95 50 90 50 85 50 80 50 75 50 70 50 65 50 60 50 55 50 50 50 50 45 50 40 55 40 55 35 55 30 55 25 60 25 65 25 70 25 75 25 80 25 85 25 90 25 95 25 100 25 105 25 105 20 110 20 110 15 110 10 110 5 105 5 105 0 100 0 95 0 90 0 85 0 80 0 75 0 70 0 65 0 60 0 55 0 50 0 45 0 40 0 35 0 30 0 25 0 20 0 20 5 20 10 25 10 25 5 30 5 35 5 40 5 45 5 50 5 55 5 60 5 65 5 70 5 75 5 80 5 85 5 90 5 95 5 100 5 100 10 100 15 95 15 90 15 85 15 80 15 75 15 70 15 65 15 60 15 55 15 50 15 45 15 45 20 45 25 45 30 45 35 40 35 40 40 40 45 40 50 40 55 45 55 50 55 55 55 60 55 65 55 70 55 75 55 80 55 85 55 90 55 90 60 95 60 95 60 90 60 85 60 80 60 75 60 70 60 65 60 60 60 55 60 50 60 45 60 40 60 35 60 35 65 35 70 35 75 35 80 35 85 35 90 35 95 30 95 30 100 30 105 30 110 30 115 25 115 20 115 15 115 10 115 5 115 5 110 5 105 5 100 0 100 0 105 0 110 0 115 0 120 5 120 5 125 10 125 15 125 20 125 25 125 30 125 35 125 35 120 35 120 40 120 40 115 40 115 40 110 40 105 40 100 45 100 45 95 45 90 45 85 45 80 45 75 45 70 50 70 55 70 60 70 65 70 70 70 75 70 80 70 85 70 90 70 95 70 100 70 100 65"/>
        <polygon class="cls-4" points="15 65 15 60 15 55 15 50 15 45 15 40 10 40 10 45 10 50 10 55 10 60 10 65 10 70 15 70 15 65"/>
        <polygon class="cls-4" points="220 65 225 65 225 60 225 55 220 55 220 60 220 65"/>
        <polygon class="cls-4" points="185 60 185 65 185 70 185 75 185 80 190 80 190 75 190 70 190 65 190 60 190 55 185 55 185 60"/>
        <polygon class="cls-4" points="555 50 550 50 545 50 540 50 535 50 535 45 535 40 535 35 540 35 540 30 540 25 540 20 540 15 540 10 540 5 535 5 535 0 530 0 525 0 520 0 515 0 510 0 505 0 505 5 510 5 515 5 520 5 525 5 530 5 530 10 530 15 530 20 530 25 530 30 525 30 525 35 525 40 525 45 525 50 525 55 530 55 535 55 540 55 545 55 550 55 555 55 560 55 565 55 565 50 560 50 555 50"/>
        <rect class="cls-4" x="275" y="50" width="5" height="5"/>
        <polygon class="cls-4" points="195 50 195 45 195 40 195 35 195 30 190 30 190 35 190 40 190 45 190 50 190 55 195 55 195 50"/>
        <polygon class="cls-4" points="220 45 220 40 215 40 215 35 215 30 210 30 205 30 205 35 205 40 205 45 205 50 205 55 200 55 200 60 200 65 200 70 200 75 200 80 195 80 195 85 195 90 195 95 195 100 195 105 190 105 190 110 195 110 195 110 190 110 190 115 185 115 180 115 180 110 180 105 175 105 175 110 175 115 175 120 175 125 180 125 185 125 190 125 195 125 200 125 200 120 200 115 200 110 200 105 205 105 205 100 205 95 205 90 205 85 205 80 210 80 210 75 210 70 210 65 210 60 210 55 215 55 220 55 220 50 220 45"/>
        <polygon class="cls-4" points="495 40 495 45 495 50 495 55 495 60 495 65 500 65 500 60 500 55 500 50 500 45 500 40 500 35 495 35 495 40"/>
        <polygon class="cls-4" points="20 35 20 30 20 25 20 20 20 15 20 10 15 10 15 15 15 20 15 25 15 30 15 35 15 40 20 40 20 35"/>
        <polygon class="cls-4" points="275 35 275 40 275 45 275 45 275 50 280 50 280 45 280 45 280 40 280 35 280 30 275 30 275 35"/>
        <polygon class="cls-4" points="565 30 565 35 565 40 565 45 565 50 570 50 570 45 570 40 570 35 570 30 570 25 565 25 565 30"/>
        <polygon class="cls-4" points="200 25 200 20 200 15 200 10 200 5 195 5 195 10 195 15 195 20 195 25 195 30 200 30 200 25"/>
        <polygon class="cls-4" points="500 10 500 15 500 20 500 25 500 30 500 35 505 35 505 30 505 25 505 20 505 15 505 10 505 5 500 5 500 10"/>
        <polygon class="cls-4" points="280 10 280 15 280 20 280 25 280 30 285 30 285 25 285 20 285 15 285 10 285 5 280 5 280 10"/>
        <polygon class="cls-4" points="210 5 215 5 220 5 225 5 230 5 230 10 235 10 235 10 235 15 235 20 240 20 240 25 240 30 240 35 245 35 245 40 245 45 245 50 250 50 250 55 250 60 255 60 255 65 255 70 260 70 260 75 260 80 265 80 265 85 265 90 265 95 270 95 270 90 270 85 270 80 275 80 275 75 275 70 275 65 275 60 275 55 270 55 270 60 270 65 270 70 270 75 265 75 265 70 265 65 260 65 260 60 260 55 255 55 255 50 255 45 250 45 250 40 250 35 250 30 245 30 245 25 245 20 245 15 240 15 240 10 240 5 235 5 235 5 235 0 230 0 225 0 220 0 215 0 210 0 205 0 200 0 200 5 205 5 210 5"/>
        <polygon class="cls-4" points="615 65 615 60 615 55 615 50 615 45 615 40 610 40 610 45 610 50 610 55 610 60 610 65 610 70 615 70 615 65"/>
        <polygon class="cls-4" points="620 35 620 30 620 25 620 20 620 15 620 10 615 10 615 15 615 20 615 25 615 30 615 35 615 40 620 40 620 35"/>
        <polygon class="cls-4" points="650 0 645 0 640 0 635 0 630 0 625 0 620 0 620 5 620 10 625 10 625 5 630 5 635 5 640 5 645 5 645 10 645 15 640 15 640 20 640 25 640 30 640 35 640 40 640 45 635 45 635 50 635 55 635 60 635 65 635 70 635 75 630 75 630 80 630 85 625 85 620 85 615 85 610 85 610 80 610 75 610 70 605 70 605 75 605 80 605 85 605 90 605 95 610 95 615 95 620 95 625 95 630 95 630 100 630 105 625 105 625 110 625 115 620 115 615 115 610 115 605 115 605 110 605 105 605 100 605 95 600 95 600 100 600 105 600 110 600 115 600 120 605 120 605 125 610 125 615 125 620 125 625 125 630 125 635 125 635 120 635 115 640 115 640 110 640 105 640 100 640 95 635 95 635 90 640 90 640 85 640 80 645 80 645 75 645 70 645 65 645 60 645 55 645 50 650 50 650 45 650 40 650 35 650 30 650 25 650 20 655 20 655 15 655 10 655 5 655 0 650 0"/>
      </g>
    </g>
  </g>
</svg>