<?xml version="1.0" encoding="UTF-8"?>
<svg id="_レイヤー_2" data-name="レイヤー 2" xmlns="http://www.w3.org/2000/svg" viewBox="0 0 605 125">
  <defs>
    <style>
      .cls-1 {
        fill: #fffed2;
      }

      .cls-2 {
        fill: #f5bbb1;
      }

      .cls-3 {
        fill: #ff0072;
      }
    </style>
  </defs>
  <g id="_レイヤー_1-2" data-name="レイヤー 1">
    <g>
      <g>
        <polygon class="cls-1" points="575 95 570 95 565 95 560 95 560 100 555 100 555 105 555 110 555 115 560 115 565 115 570 115 575 115 575 110 575 105 580 105 580 100 575 100 575 95"/>
        <path class="cls-1" d="M300,85h-5v-5h5v-10h-5v-5h-5v-5h-5v5h-5v5h-5v5h-40v-10h-10v5h5v5h-10v10h-5v10h-5v10h-5v10h10v-10h5v-10h5v-10h5v-5h50v5h-5v20h5v10h25v-25h-5v-5ZM285,95h5v5h-5v-5ZM290,70v5h-5v-5h5Z"/>
        <path class="cls-1" d="M420,65h-5v-5h-5v5h-5v5h-5v10h5v5h-5v5h-5v25h20v-5h5v-30h5v-10h-5v-5ZM415,100h-5v-5h5v5ZM415,75h-5v-5h5v5Z"/>
        <polygon class="cls-1" points="575 65 570 65 570 70 565 70 560 70 560 75 560 80 560 85 565 85 565 80 570 80 570 85 575 85 580 85 580 80 580 75 575 75 575 70 580 70 580 75 585 75 585 70 585 65 580 65 580 60 575 60 575 65"/>
        <rect class="cls-1" x="565" y="60" width="5" height="5"/>
        <rect class="cls-1" x="400" y="60" width="5" height="5"/>
        <rect class="cls-1" x="390" y="60" width="5" height="5"/>
        <rect class="cls-1" x="380" y="60" width="5" height="5"/>
        <rect class="cls-1" x="370" y="60" width="5" height="5"/>
        <rect class="cls-1" x="360" y="60" width="5" height="5"/>
        <path class="cls-1" d="M350,65h-5v5h-5v-5h-10v5h5v5h-5v15h-5v25h25v-30h5v-10h-5v-5h5v-10h-5v5ZM330,95h5v5h-5v-5ZM340,85v-5h5v5h-5Z"/>
        <rect class="cls-1" x="340" y="60" width="5" height="5"/>
        <rect class="cls-1" x="295" y="60" width="5" height="5"/>
        <rect class="cls-1" x="275" y="60" width="5" height="5"/>
        <rect class="cls-1" x="235" y="60" width="5" height="5"/>
        <rect class="cls-1" x="175" y="60" width="5" height="5"/>
        <path class="cls-1" d="M170,60h-5v5h-5v5h-5v10h5v5h-5v-5h-5v25h-5v10h25v-15h-5v-5h10v-30h-5v-5ZM170,75h-5v-5h5v5Z"/>
        <rect class="cls-1" x="155" y="60" width="5" height="5"/>
        <rect class="cls-1" x="100" y="60" width="5" height="5"/>
        <path class="cls-1" d="M95,60h-5v5h-5v5h-5v10h5v5h-5v-5h-5v20h-5v5h-35v-5h-5v-20h-5v5h-5v-5H5v30h5v5h75v-5h10v-10h-5v-5h5v5h5v-35h-5v-5ZM10,95h5v5h-5v-5ZM95,75h-5v-5h5v5Z"/>
        <rect class="cls-1" x="80" y="60" width="5" height="5"/>
        <rect class="cls-1" x="580" y="55" width="5" height="5"/>
        <rect class="cls-1" x="570" y="55" width="5" height="5"/>
        <rect class="cls-1" x="415" y="55" width="5" height="5"/>
        <rect class="cls-1" x="405" y="55" width="5" height="5"/>
        <rect class="cls-1" x="395" y="55" width="5" height="5"/>
        <rect class="cls-1" x="385" y="55" width="5" height="5"/>
        <rect class="cls-1" x="375" y="55" width="5" height="5"/>
        <rect class="cls-1" x="365" y="55" width="5" height="5"/>
        <rect class="cls-1" x="355" y="55" width="5" height="5"/>
        <rect class="cls-1" x="345" y="55" width="5" height="5"/>
        <rect class="cls-1" x="335" y="55" width="5" height="5"/>
        <rect class="cls-1" x="290" y="55" width="5" height="5"/>
        <rect class="cls-1" x="280" y="55" width="5" height="5"/>
        <rect class="cls-1" x="270" y="55" width="5" height="5"/>
        <rect class="cls-1" x="230" y="55" width="5" height="5"/>
        <rect class="cls-1" x="170" y="55" width="5" height="5"/>
        <rect class="cls-1" x="160" y="55" width="5" height="5"/>
        <rect class="cls-1" x="95" y="55" width="5" height="5"/>
        <rect class="cls-1" x="85" y="55" width="5" height="5"/>
        <rect class="cls-1" x="75" y="55" width="5" height="5"/>
        <rect class="cls-1" x="65" y="55" width="5" height="5"/>
        <rect class="cls-1" x="55" y="55" width="5" height="5"/>
        <rect class="cls-1" x="45" y="55" width="5" height="5"/>
        <rect class="cls-1" x="35" y="55" width="5" height="5"/>
        <rect class="cls-1" x="25" y="55" width="5" height="5"/>
        <rect class="cls-1" x="575" y="50" width="5" height="5"/>
        <rect class="cls-1" x="410" y="50" width="5" height="5"/>
        <rect class="cls-1" x="350" y="50" width="5" height="5"/>
        <rect class="cls-1" x="285" y="50" width="5" height="5"/>
        <rect class="cls-1" x="165" y="50" width="5" height="5"/>
        <rect class="cls-1" x="30" y="50" width="5" height="5"/>
        <rect class="cls-1" x="565" y="45" width="5" height="5"/>
        <rect class="cls-1" x="420" y="45" width="5" height="5"/>
        <rect class="cls-1" x="340" y="45" width="5" height="5"/>
        <rect class="cls-1" x="295" y="45" width="5" height="5"/>
        <rect class="cls-1" x="275" y="45" width="5" height="5"/>
        <rect class="cls-1" x="235" y="45" width="5" height="5"/>
        <rect class="cls-1" x="175" y="45" width="5" height="5"/>
        <rect class="cls-1" x="20" y="45" width="5" height="5"/>
        <rect class="cls-1" x="575" y="35" width="5" height="5"/>
        <rect class="cls-1" x="410" y="35" width="5" height="5"/>
        <rect class="cls-1" x="350" y="35" width="5" height="5"/>
        <rect class="cls-1" x="285" y="35" width="5" height="5"/>
        <rect class="cls-1" x="245" y="35" width="5" height="5"/>
        <rect class="cls-1" x="165" y="35" width="5" height="5"/>
        <rect class="cls-1" x="30" y="35" width="5" height="5"/>
        <rect class="cls-1" x="585" y="20" width="5" height="5"/>
        <rect class="cls-1" x="420" y="20" width="5" height="5"/>
        <rect class="cls-1" x="360" y="20" width="5" height="5"/>
        <rect class="cls-1" x="340" y="20" width="5" height="5"/>
        <rect class="cls-1" x="275" y="20" width="5" height="5"/>
        <rect class="cls-1" x="255" y="20" width="5" height="5"/>
        <rect class="cls-1" x="175" y="20" width="5" height="5"/>
        <rect class="cls-1" x="100" y="20" width="5" height="5"/>
        <rect class="cls-1" x="40" y="20" width="5" height="5"/>
        <rect class="cls-1" x="20" y="20" width="5" height="5"/>
        <rect class="cls-1" x="500" y="60" width="5" height="5"/>
        <path class="cls-1" d="M495,60h-5v5h-5v5h-5v10h5v5h-5v-5h-5v25h-5v10h25v-15h-5v-5h10v-30h-5v-5ZM495,75h-5v-5h5v5Z"/>
        <rect class="cls-1" x="480" y="60" width="5" height="5"/>
        <rect class="cls-1" x="495" y="55" width="5" height="5"/>
        <rect class="cls-1" x="485" y="55" width="5" height="5"/>
        <rect class="cls-1" x="490" y="50" width="5" height="5"/>
        <rect class="cls-1" x="500" y="45" width="5" height="5"/>
        <rect class="cls-1" x="490" y="35" width="5" height="5"/>
        <rect class="cls-1" x="500" y="20" width="5" height="5"/>
      </g>
      <g>
        <rect class="cls-2" x="575" y="95" width="5" height="5"/>
        <rect class="cls-2" x="555" y="95" width="5" height="5"/>
        <rect class="cls-2" x="410" y="95" width="5" height="5"/>
        <rect class="cls-2" x="330" y="95" width="5" height="5"/>
        <rect class="cls-2" x="285" y="95" width="5" height="5"/>
        <rect class="cls-2" x="165" y="95" width="5" height="5"/>
        <rect class="cls-2" x="90" y="95" width="5" height="5"/>
        <rect class="cls-2" x="10" y="95" width="5" height="5"/>
        <rect class="cls-2" x="565" y="80" width="5" height="5"/>
        <rect class="cls-2" x="420" y="80" width="5" height="5"/>
        <rect class="cls-2" x="400" y="80" width="5" height="5"/>
        <rect class="cls-2" x="340" y="80" width="5" height="5"/>
        <rect class="cls-2" x="295" y="80" width="5" height="5"/>
        <rect class="cls-2" x="275" y="80" width="5" height="5"/>
        <rect class="cls-2" x="155" y="80" width="5" height="5"/>
        <rect class="cls-2" x="80" y="80" width="5" height="5"/>
        <rect class="cls-2" x="20" y="80" width="5" height="5"/>
        <rect class="cls-2" x="575" y="70" width="5" height="5"/>
        <rect class="cls-2" x="410" y="70" width="5" height="5"/>
        <rect class="cls-2" x="350" y="70" width="5" height="5"/>
        <rect class="cls-2" x="330" y="70" width="5" height="5"/>
        <rect class="cls-2" x="285" y="70" width="5" height="5"/>
        <rect class="cls-2" x="225" y="70" width="5" height="5"/>
        <rect class="cls-2" x="165" y="70" width="5" height="5"/>
        <rect class="cls-2" x="90" y="70" width="5" height="5"/>
        <rect class="cls-2" x="565" y="65" width="5" height="5"/>
        <rect class="cls-2" x="420" y="65" width="5" height="5"/>
        <rect class="cls-2" x="400" y="65" width="5" height="5"/>
        <rect class="cls-2" x="340" y="65" width="5" height="5"/>
        <rect class="cls-2" x="295" y="65" width="5" height="5"/>
        <rect class="cls-2" x="275" y="65" width="5" height="5"/>
        <rect class="cls-2" x="175" y="65" width="5" height="5"/>
        <rect class="cls-2" x="155" y="65" width="5" height="5"/>
        <rect class="cls-2" x="100" y="65" width="5" height="5"/>
        <rect class="cls-2" x="80" y="65" width="5" height="5"/>
        <rect class="cls-2" x="580" y="60" width="5" height="5"/>
        <rect class="cls-2" x="570" y="60" width="5" height="5"/>
        <rect class="cls-2" x="415" y="60" width="5" height="5"/>
        <rect class="cls-2" x="405" y="60" width="5" height="5"/>
        <rect class="cls-2" x="395" y="60" width="5" height="5"/>
        <rect class="cls-2" x="385" y="60" width="5" height="5"/>
        <rect class="cls-2" x="375" y="60" width="5" height="5"/>
        <rect class="cls-2" x="365" y="60" width="5" height="5"/>
        <rect class="cls-2" x="355" y="60" width="5" height="5"/>
        <rect class="cls-2" x="345" y="60" width="5" height="5"/>
        <rect class="cls-2" x="335" y="60" width="5" height="5"/>
        <rect class="cls-2" x="290" y="60" width="5" height="5"/>
        <rect class="cls-2" x="280" y="60" width="5" height="5"/>
        <rect class="cls-2" x="230" y="60" width="5" height="5"/>
        <rect class="cls-2" x="170" y="60" width="5" height="5"/>
        <rect class="cls-2" x="160" y="60" width="5" height="5"/>
        <rect class="cls-2" x="95" y="60" width="5" height="5"/>
        <rect class="cls-2" x="85" y="60" width="5" height="5"/>
        <rect class="cls-2" x="75" y="60" width="5" height="5"/>
        <rect class="cls-2" x="575" y="55" width="5" height="5"/>
        <rect class="cls-2" x="410" y="55" width="5" height="5"/>
        <rect class="cls-2" x="390" y="55" width="5" height="5"/>
        <rect class="cls-2" x="380" y="55" width="5" height="5"/>
        <rect class="cls-2" x="370" y="55" width="5" height="5"/>
        <rect class="cls-2" x="360" y="55" width="5" height="5"/>
        <rect class="cls-2" x="350" y="55" width="5" height="5"/>
        <rect class="cls-2" x="285" y="55" width="5" height="5"/>
        <rect class="cls-2" x="165" y="55" width="5" height="5"/>
        <rect class="cls-2" x="155" y="55" width="5" height="5"/>
        <rect class="cls-2" x="90" y="55" width="5" height="5"/>
        <rect class="cls-2" x="80" y="55" width="5" height="5"/>
        <rect class="cls-2" x="70" y="55" width="5" height="5"/>
        <rect class="cls-2" x="60" y="55" width="5" height="5"/>
        <rect class="cls-2" x="50" y="55" width="5" height="5"/>
        <rect class="cls-2" x="30" y="55" width="5" height="5"/>
        <path class="cls-2" d="M295,35V5h-40v10h-5v10h-5v10h10v-15h5v-5h5v10h5v30h5v5h5v-5h5v-5h5v5h5v5h5v-10h-5v-5h5v-5h-5v-5ZM275,20h5v5h-5v-5ZM275,50v-5h5v5h-5ZM285,40v-5h5v5h-5Z"/>
        <polygon class="cls-2" points="240 40 240 45 240 50 235 50 235 55 235 60 240 60 240 55 245 55 245 50 245 45 250 45 250 40 245 40 245 35 240 35 240 40"/>
        <path class="cls-2" d="M225,10v-5h-95v5h5v5h30v15h-5v25h5v-5h5v5h5v5h5v-10h-5v-5h10v-25h5v-5h35v-5ZM165,35h5v5h-5v-5ZM180,25h-5v-5h5v5Z"/>
        <path class="cls-2" d="M590,5h-15v5h-5v30h-5v5h5v5h-5v10h5v-5h5v-5h5v5h5v-10h5v-20h-5v-5h5v-5h5V5h-5ZM575,35h5v5h-5v-5Z"/>
        <path class="cls-2" d="M430,5h-85v10h-5v5h5v5h-5v15h-5v15h5v5h5v-5h5v-5h5v5h5v-20h5v-10h-5v-5h5v-10h40v10h5v15h5v5h-10v10h-5v10h5v-5h5v-5h5v5h10v-5h-5v-5h10v-15h5V10h-5v-5ZM340,50v-5h5v5h-5ZM355,40h-5v-5h5v5ZM425,25h-5v-5h5v5Z"/>
        <path class="cls-2" d="M105,5H25v5h-5v10h5v5h-5v-5h-5v35h5v5h5v-5h5v-5h5v5h5v5h5v-10h-5v-30h5v-10h40v25h25V10h-5v-5ZM20,50v-5h5v5h-5ZM35,40h-5v-5h5v5ZM105,25h-5v-5h5v5Z"/>
        <rect class="cls-2" x="490" y="95" width="5" height="5"/>
        <rect class="cls-2" x="480" y="80" width="5" height="5"/>
        <rect class="cls-2" x="490" y="70" width="5" height="5"/>
        <rect class="cls-2" x="500" y="65" width="5" height="5"/>
        <rect class="cls-2" x="480" y="65" width="5" height="5"/>
        <rect class="cls-2" x="495" y="60" width="5" height="5"/>
        <rect class="cls-2" x="485" y="60" width="5" height="5"/>
        <rect class="cls-2" x="490" y="55" width="5" height="5"/>
        <rect class="cls-2" x="480" y="55" width="5" height="5"/>
        <path class="cls-2" d="M540,5h-85v5h5v5h30v15h-5v25h5v-5h5v5h5v5h5v-10h-5v-5h10v-25h5v-5h35V5h-10ZM490,35h5v5h-5v-5ZM505,25h-5v-5h5v5Z"/>
      </g>
      <g>
        <rect class="cls-3" x="5" y="110" width="5" height="5"/>
        <polygon class="cls-3" points="210 100 210 95 205 95 205 100 205 105 210 105 210 100"/>
        <polygon class="cls-3" points="150 100 150 95 150 90 150 85 150 80 145 80 145 85 145 90 145 95 145 100 145 105 150 105 150 100"/>
        <polygon class="cls-3" points="5 100 5 95 5 90 5 85 5 80 0 80 0 85 0 90 0 95 0 100 0 105 0 110 5 110 5 105 5 100"/>
        <polygon class="cls-3" points="275 95 275 90 275 85 275 80 270 80 265 80 260 80 255 80 250 80 245 80 240 80 235 80 230 80 230 85 225 85 225 90 225 95 220 95 220 100 220 105 215 105 215 110 215 115 210 115 205 115 205 110 205 105 200 105 200 110 195 110 195 115 195 120 200 120 200 125 205 125 210 125 215 125 220 125 220 120 225 120 225 115 225 110 230 110 230 105 230 100 235 100 235 95 240 95 245 95 250 95 255 95 260 95 265 95 270 95 270 100 270 105 275 105 275 100 275 95"/>
        <polygon class="cls-3" points="75 95 75 90 75 85 75 80 70 80 70 85 70 90 70 95 70 100 75 100 75 95"/>
        <polygon class="cls-3" points="310 90 310 85 310 80 310 75 310 70 310 65 310 60 310 55 305 55 305 50 305 45 305 40 305 35 305 30 305 25 305 20 300 20 300 15 300 10 300 5 295 5 295 10 295 15 295 20 295 25 295 30 295 35 295 40 300 40 300 45 300 50 300 55 300 60 300 65 300 70 300 75 300 80 300 85 300 90 305 90 305 95 305 100 305 105 305 110 305 115 300 115 295 115 290 115 285 115 280 115 280 110 280 105 275 105 275 110 275 115 275 120 280 120 280 125 285 125 290 125 295 125 300 125 305 125 310 125 315 125 315 120 315 115 315 110 315 105 315 100 315 95 310 95 310 90"/>
        <polygon class="cls-3" points="215 90 215 85 210 85 210 90 210 95 215 95 215 90"/>
        <polygon class="cls-3" points="400 85 400 80 400 75 400 70 400 65 395 65 390 65 385 65 380 65 375 65 370 65 365 65 360 65 355 65 355 70 355 75 355 80 355 85 350 85 350 90 350 95 350 100 350 105 350 110 350 115 345 115 340 115 335 115 330 115 325 115 325 110 325 105 325 100 325 95 325 90 320 90 320 95 320 100 320 105 320 110 320 115 320 120 325 120 325 125 330 125 335 125 340 125 345 125 350 125 355 125 355 120 360 120 360 115 360 110 360 105 360 100 360 95 360 90 365 90 365 85 365 80 365 75 370 75 375 75 380 75 385 75 390 75 395 75 395 80 395 85 395 90 400 90 400 85"/>
        <polygon class="cls-3" points="330 85 330 80 330 75 330 70 330 65 325 65 325 70 325 75 325 80 325 85 325 90 330 90 330 85"/>
        <polygon class="cls-3" points="220 80 220 75 215 75 215 80 215 85 220 85 220 80"/>
        <polygon class="cls-3" points="155 75 155 70 155 65 155 60 155 55 150 55 150 60 150 65 150 70 150 75 150 80 155 80 155 75"/>
        <polygon class="cls-3" points="80 75 80 70 80 65 75 65 75 60 70 60 65 60 60 60 55 60 50 60 45 60 40 60 35 60 30 60 25 60 20 60 20 55 15 55 15 50 15 45 15 40 15 35 15 30 15 25 15 20 10 20 10 25 10 30 10 35 10 40 10 45 10 50 10 55 10 60 15 60 15 65 20 65 20 70 25 70 30 70 35 70 40 70 45 70 50 70 55 70 60 70 65 70 70 70 75 70 75 75 75 80 80 80 80 75"/>
        <polygon class="cls-3" points="15 80 20 80 25 80 30 80 30 85 30 90 30 95 30 100 35 100 35 105 40 105 45 105 50 105 55 105 60 105 65 105 70 105 70 100 65 100 60 100 55 100 50 100 45 100 40 100 40 95 40 90 40 85 40 80 35 80 35 75 30 75 25 75 20 75 15 75 10 75 5 75 5 80 10 80 15 80"/>
        <polygon class="cls-3" points="225 70 225 65 220 65 220 70 220 75 225 75 225 70"/>
        <polygon class="cls-3" points="565 65 565 60 565 55 565 50 565 45 565 40 560 40 560 45 560 50 560 55 560 60 560 65 560 70 565 70 565 65"/>
        <polygon class="cls-3" points="105 70 100 70 100 75 100 80 100 85 100 90 100 95 100 100 95 100 95 105 95 110 90 110 85 110 85 115 80 115 75 115 70 115 65 115 60 115 55 115 50 115 45 115 40 115 35 115 30 115 25 115 20 115 15 115 10 115 10 120 15 120 15 125 20 125 25 125 30 125 35 125 40 125 45 125 50 125 55 125 60 125 65 125 70 125 75 125 80 125 85 125 90 125 95 125 95 120 100 120 100 115 105 115 105 110 105 105 110 105 110 100 110 95 110 90 110 85 110 80 115 80 115 75 115 70 115 65 110 65 110 60 105 60 105 65 105 70"/>
        <polygon class="cls-3" points="335 60 335 55 335 50 335 45 335 40 330 40 330 45 330 50 330 55 330 60 330 65 335 65 335 60"/>
        <polygon class="cls-3" points="270 65 270 70 265 70 260 70 255 70 250 70 250 65 250 60 255 60 255 55 255 50 260 50 260 45 260 40 265 40 265 45 265 50 265 55 265 60 270 60 270 55 270 50 270 45 270 40 270 35 270 30 270 25 265 25 265 20 265 15 260 15 260 20 260 25 255 25 255 30 255 35 250 35 250 40 250 45 245 45 245 50 245 55 240 55 240 60 240 65 235 65 235 70 235 75 240 75 245 75 250 75 255 75 260 75 265 75 270 75 275 75 275 70 275 65 275 60 270 60 270 65"/>
        <polygon class="cls-3" points="230 60 230 55 225 55 225 60 225 65 230 65 230 60"/>
        <rect class="cls-3" x="100" y="55" width="5" height="5"/>
        <polygon class="cls-3" points="400 50 395 50 390 50 385 50 380 50 375 50 370 50 370 45 370 40 370 35 375 35 375 30 375 25 375 20 380 20 385 20 390 20 395 20 400 20 400 25 400 30 400 35 400 40 400 45 400 50 405 50 405 45 405 40 410 40 410 35 410 30 410 25 410 20 405 20 405 15 405 10 400 10 395 10 390 10 385 10 380 10 375 10 370 10 365 10 365 15 365 20 365 25 365 30 365 35 360 35 360 40 360 45 360 50 360 55 365 55 370 55 375 55 380 55 385 55 390 55 395 55 400 55 400 50"/>
        <polygon class="cls-3" points="235 50 235 45 230 45 230 50 230 55 235 55 235 50"/>
        <polygon class="cls-3" points="195 50 195 45 195 40 195 35 195 30 200 30 200 25 205 25 210 25 215 25 220 25 225 25 230 25 230 20 235 20 235 15 235 10 235 5 230 5 230 0 225 0 220 0 215 0 210 0 205 0 200 0 195 0 190 0 185 0 180 0 175 0 170 0 165 0 160 0 155 0 150 0 145 0 140 0 135 0 130 0 125 0 125 5 125 10 125 15 130 15 130 20 135 20 135 25 140 25 145 25 150 25 155 25 160 25 160 30 165 30 165 25 165 20 165 15 160 15 155 15 150 15 145 15 140 15 135 15 135 10 130 10 130 5 135 5 140 5 145 5 150 5 155 5 160 5 165 5 170 5 175 5 180 5 185 5 190 5 195 5 200 5 205 5 210 5 215 5 220 5 225 5 225 10 225 15 220 15 215 15 210 15 205 15 200 15 195 15 190 15 190 20 185 20 185 25 185 30 185 35 185 40 185 45 180 45 180 50 180 55 180 60 180 65 180 70 175 70 175 75 175 80 175 85 175 90 175 95 170 95 170 100 170 105 170 110 170 115 165 115 160 115 155 115 150 115 145 115 145 110 145 105 140 105 140 110 140 115 140 120 145 120 145 125 150 125 155 125 160 125 165 125 170 125 175 125 180 125 180 120 180 115 180 110 180 105 185 105 185 100 185 95 185 90 185 85 185 80 190 80 190 75 190 70 190 65 190 60 190 55 195 55 195 50"/>
        <polygon class="cls-3" points="160 50 160 45 160 40 160 35 160 30 155 30 155 35 155 40 155 45 155 50 155 55 160 55 160 50"/>
        <polygon class="cls-3" points="240 40 240 35 235 35 235 40 235 45 240 45 240 40"/>
        <polygon class="cls-3" points="570 35 570 30 570 25 570 20 570 15 570 10 565 10 565 15 565 20 565 25 565 30 565 35 565 40 570 40 570 35"/>
        <polygon class="cls-3" points="340 35 340 30 340 25 340 20 340 15 335 15 335 20 335 25 335 30 335 35 335 40 340 40 340 35"/>
        <polygon class="cls-3" points="245 30 245 25 240 25 240 30 240 35 245 35 245 30"/>
        <polygon class="cls-3" points="250 20 250 15 245 15 245 20 245 25 250 25 250 20"/>
        <polygon class="cls-3" points="20 15 20 10 15 10 15 15 15 20 20 20 20 15"/>
        <polygon class="cls-3" points="435 15 435 20 435 25 435 30 430 30 430 35 430 40 430 45 425 45 425 50 425 55 420 55 420 60 420 65 425 65 425 70 425 75 425 80 425 85 420 85 420 90 420 95 420 100 420 105 420 110 415 110 415 115 410 115 405 115 400 115 395 115 395 110 395 105 395 100 395 95 395 90 390 90 390 95 390 100 390 105 390 110 390 115 390 120 395 120 395 125 400 125 405 125 410 125 415 125 420 125 425 125 425 120 430 120 430 115 430 110 430 105 430 100 430 95 430 90 435 90 435 85 435 80 435 75 435 70 430 70 430 65 435 65 435 60 435 55 435 50 435 45 440 45 440 40 440 35 440 30 440 25 440 20 440 15 440 10 435 10 435 15"/>
        <polygon class="cls-3" points="345 10 345 5 350 5 355 5 360 5 365 5 370 5 375 5 380 5 385 5 390 5 395 5 400 5 405 5 410 5 415 5 420 5 425 5 430 5 430 0 425 0 420 0 415 0 410 0 405 0 400 0 395 0 390 0 385 0 380 0 375 0 370 0 365 0 360 0 355 0 350 0 345 0 340 0 340 5 340 10 340 15 345 15 345 10"/>
        <polygon class="cls-3" points="255 10 255 5 250 5 250 10 250 15 255 15 255 10"/>
        <polygon class="cls-3" points="115 10 110 10 110 15 110 20 110 25 110 30 110 35 105 35 100 35 95 35 90 35 85 35 85 30 85 25 85 20 85 15 85 10 80 10 75 10 70 10 65 10 60 10 55 10 50 10 45 10 45 15 45 20 45 25 40 25 40 30 40 35 40 40 40 45 40 50 45 50 45 55 50 55 55 55 60 55 65 55 70 55 75 55 80 55 85 55 90 55 95 55 100 55 100 50 95 50 90 50 85 50 80 50 75 50 70 50 65 50 60 50 55 50 50 50 50 45 50 40 50 35 50 30 50 25 55 25 55 20 60 20 65 20 70 20 75 20 80 20 80 25 80 30 80 35 80 40 85 40 85 45 90 45 95 45 100 45 105 45 110 45 115 45 115 40 120 40 120 35 120 30 120 25 120 20 120 15 115 15 115 10"/>
        <rect class="cls-3" x="430" y="5" width="5" height="5"/>
        <rect class="cls-3" x="105" y="5" width="5" height="5"/>
        <rect class="cls-3" x="20" y="5" width="5" height="5"/>
        <polygon class="cls-3" points="600 0 595 0 590 0 585 0 580 0 575 0 570 0 570 5 570 10 575 10 575 5 580 5 585 5 590 5 595 5 595 10 595 15 590 15 590 20 590 25 590 30 590 35 590 40 590 45 585 45 585 50 585 55 585 60 585 65 585 70 585 75 580 75 580 80 580 85 575 85 570 85 565 85 560 85 560 80 560 75 560 70 555 70 555 75 555 80 555 85 555 90 555 95 560 95 565 95 570 95 575 95 580 95 580 100 580 105 575 105 575 110 575 115 570 115 565 115 560 115 555 115 555 110 555 105 555 100 555 95 550 95 550 100 550 105 550 110 550 115 550 120 555 120 555 125 560 125 565 125 570 125 575 125 580 125 585 125 585 120 585 115 590 115 590 110 590 105 590 100 590 95 585 95 585 90 590 90 590 85 590 80 595 80 595 75 595 70 595 65 595 60 595 55 595 50 600 50 600 45 600 40 600 35 600 30 600 25 600 20 605 20 605 15 605 10 605 5 605 0 600 0"/>
        <polygon class="cls-3" points="265 5 270 5 275 5 280 5 285 5 290 5 295 5 295 0 290 0 285 0 280 0 275 0 270 0 265 0 260 0 255 0 255 5 260 5 265 5"/>
        <polygon class="cls-3" points="475 100 475 95 475 90 475 85 475 80 470 80 470 85 470 90 470 95 470 100 470 105 475 105 475 100"/>
        <polygon class="cls-3" points="480 75 480 70 480 65 480 60 480 55 475 55 475 60 475 65 475 70 475 75 475 80 480 80 480 75"/>
        <polygon class="cls-3" points="485 50 485 45 485 40 485 35 485 30 480 30 480 35 480 40 480 45 480 50 480 55 485 55 485 50"/>
        <polygon class="cls-3" points="555 25 555 20 560 20 560 15 560 10 560 5 555 5 555 0 550 0 545 0 540 0 535 0 530 0 525 0 520 0 515 0 510 0 505 0 500 0 495 0 490 0 485 0 480 0 475 0 470 0 465 0 460 0 455 0 450 0 450 5 450 10 450 15 455 15 455 20 460 20 460 25 465 25 470 25 475 25 480 25 485 25 485 30 490 30 490 25 490 20 490 15 485 15 480 15 475 15 470 15 465 15 460 15 460 10 455 10 455 5 460 5 465 5 470 5 475 5 480 5 485 5 490 5 495 5 500 5 505 5 510 5 515 5 520 5 525 5 530 5 535 5 540 5 545 5 550 5 550 10 550 15 545 15 540 15 535 15 530 15 525 15 520 15 515 15 515 20 510 20 510 25 510 30 510 35 510 40 510 45 505 45 505 50 505 55 505 60 505 65 505 70 500 70 500 75 500 80 500 85 500 90 500 95 495 95 495 100 495 105 495 110 495 115 490 115 485 115 480 115 475 115 470 115 470 110 470 105 465 105 465 110 465 115 465 120 470 120 470 125 475 125 480 125 485 125 490 125 495 125 500 125 505 125 505 120 505 115 505 110 505 105 510 105 510 100 510 95 510 90 510 85 510 80 515 80 515 75 515 70 515 65 515 60 515 55 520 55 520 50 520 45 520 40 520 35 520 30 525 30 525 25 530 25 535 25 540 25 545 25 550 25 555 25"/>
        <polygon class="cls-3" points="35 5 40 5 45 5 50 5 55 5 60 5 65 5 70 5 75 5 80 5 85 5 90 5 95 5 100 5 105 5 105 0 100 0 95 0 90 0 85 0 80 0 75 0 70 0 65 0 60 0 55 0 50 0 45 0 40 0 35 0 30 0 25 0 25 5 30 5 35 5"/>
      </g>
    </g>
  </g>
</svg>