<?xml version="1.0" encoding="UTF-8"?>
<svg id="_レイヤー_2" data-name="レイヤー 2" xmlns="http://www.w3.org/2000/svg" xmlns:xlink="http://www.w3.org/1999/xlink" viewBox="0 0 705.13 799.99">
  <defs>
    <style>
      .cls-1, .cls-2, .cls-3 {
        fill: none;
      }

      .cls-4 {
        fill: #fff;
        stroke: #008cff;
        stroke-width: 5.99px;
      }

      .cls-4, .cls-2, .cls-3 {
        stroke-miterlimit: 10;
      }

      .cls-2 {
        stroke: #fff;
        stroke-width: 14.17px;
      }

      .cls-5 {
        fill: url(#_名称未設定グラデーション_98-2);
      }

      .cls-6 {
        fill: url(#_名称未設定グラデーション_98-3);
      }

      .cls-3 {
        stroke: #ffc3bd;
        stroke-width: 5.4px;
      }

      .cls-7 {
        fill: #0089e5;
      }

      .cls-8 {
        clip-path: url(#clippath-1);
      }

      .cls-9 {
        fill: #ff0072;
      }

      .cls-10 {
        fill: #ff7bba;
        opacity: .4;
      }

      .cls-11 {
        fill: #0c419a;
      }

      .cls-12 {
        clip-path: url(#clippath);
      }

      .cls-13 {
        fill: url(#_名称未設定グラデーション_98);
      }
    </style>
    <clipPath id="clippath">
      <rect class="cls-1" width="705.13" height="799.99"/>
    </clipPath>
    <linearGradient id="_名称未設定グラデーション_98" data-name="名称未設定グラデーション 98" x1="352.56" y1="799.99" x2="352.56" y2="0" gradientUnits="userSpaceOnUse">
      <stop offset=".25" stop-color="#fffed2"/>
      <stop offset=".46" stop-color="#fff7c8"/>
      <stop offset=".8" stop-color="#ffe5af"/>
      <stop offset="1" stop-color="#ffd89d"/>
    </linearGradient>
    <clipPath id="clippath-1">
      <rect class="cls-1" y="0" width="705.13" height="799.99"/>
    </clipPath>
    <linearGradient id="_名称未設定グラデーション_98-2" data-name="名称未設定グラデーション 98" y1="765.18" x2="352.56" y2="645.27" xlink:href="#_名称未設定グラデーション_98"/>
    <linearGradient id="_名称未設定グラデーション_98-3" data-name="名称未設定グラデーション 98" y1="800.03" x2="352.56" y2="765.18" xlink:href="#_名称未設定グラデーション_98"/>
  </defs>
  <g id="_レイヤー_1-2" data-name="レイヤー 1">
    <g class="cls-12">
      <g>
        <rect class="cls-13" y="0" width="705.13" height="799.99"/>
        <g class="cls-8">
          <g>
            <line class="cls-2" x1="705.13" y1="0" x2="400.01" y2="318.05"/>
            <line class="cls-2" y1="0" x2="-305.12" y2="318.05"/>
            <line class="cls-2" x1="47.01" y1="0" x2="-258.11" y2="318.05"/>
            <line class="cls-2" x1="94.02" y1="0" x2="-211.1" y2="318.05"/>
            <line class="cls-2" x1="188.03" y1="0" x2="-117.08" y2="318.05"/>
            <line class="cls-2" x1="282.05" y1="0" x2="-23.07" y2="318.05"/>
            <line class="cls-2" x1="376.07" y1=".33" x2="70.95" y2="318.38"/>
            <line class="cls-2" x1="470.09" y1=".33" x2="164.97" y2="318.38"/>
            <line class="cls-2" x1="141.03" y1="0" x2="-164.09" y2="318.05"/>
            <line class="cls-2" x1="235.04" y1="0" x2="-70.07" y2="318.05"/>
            <line class="cls-2" x1="329.06" y1="0" x2="23.94" y2="318.05"/>
            <g>
              <line class="cls-2" x1="752.14" y1="0" x2="447.02" y2="318.05"/>
              <line class="cls-2" x1="799.15" y1="0" x2="494.03" y2="318.05"/>
              <line class="cls-2" x1="893.16" y1="0" x2="588.05" y2="318.05"/>
              <line class="cls-2" x1="987.18" y1="0" x2="682.06" y2="318.05"/>
              <line class="cls-2" x1="846.15" y1="0" x2="541.04" y2="318.05"/>
              <line class="cls-2" x1="940.17" y1="0" x2="635.05" y2="318.05"/>
            </g>
            <line class="cls-2" x1="423.08" y1="0" x2="117.96" y2="318.05"/>
            <line class="cls-2" x1="517.09" y1=".33" x2="211.98" y2="318.38"/>
            <line class="cls-2" x1="611.11" y1=".33" x2="305.99" y2="318.38"/>
            <line class="cls-2" x1="658.12" y1=".33" x2="353" y2="318.38"/>
            <line class="cls-2" x1="564.1" y1=".33" x2="258.99" y2="318.38"/>
          </g>
          <g>
            <line class="cls-2" x1="682.06" y1="318.05" x2="376.95" y2="636.09"/>
            <line class="cls-2" x1="23.94" y1="318.05" x2="-281.17" y2="636.09"/>
            <line class="cls-2" x1="70.95" y1="318.05" x2="-234.16" y2="636.09"/>
            <line class="cls-2" x1="164.97" y1="318.05" x2="-140.15" y2="636.09"/>
            <line class="cls-2" x1="258.99" y1="318.05" x2="-46.13" y2="636.09"/>
            <line class="cls-2" x1="353" y1="318.38" x2="47.89" y2="636.43"/>
            <line class="cls-2" x1="447.02" y1="318.38" x2="141.9" y2="636.43"/>
            <line class="cls-2" x1="117.96" y1="318.05" x2="-187.16" y2="636.09"/>
            <line class="cls-2" x1="211.98" y1="318.05" x2="-93.14" y2="636.09"/>
            <line class="cls-2" x1="305.99" y1="318.05" x2=".88" y2="636.09"/>
            <g>
              <line class="cls-2" x1="729.07" y1="318.05" x2="423.96" y2="636.09"/>
              <line class="cls-2" x1="776.08" y1="318.05" x2="470.96" y2="636.09"/>
              <line class="cls-2" x1="870.1" y1="318.05" x2="564.98" y2="636.09"/>
              <line class="cls-2" x1="964.11" y1="318.05" x2="659" y2="636.09"/>
              <line class="cls-2" x1="823.09" y1="318.05" x2="517.97" y2="636.09"/>
              <line class="cls-2" x1="917.11" y1="318.05" x2="611.99" y2="636.09"/>
              <line class="cls-2" x1="1011.12" y1="318.05" x2="706.01" y2="636.09"/>
            </g>
            <line class="cls-2" x1="400.01" y1="318.05" x2="94.9" y2="636.09"/>
            <line class="cls-2" x1="494.03" y1="318.38" x2="188.91" y2="636.43"/>
            <line class="cls-2" x1="588.05" y1="318.38" x2="282.93" y2="636.43"/>
            <line class="cls-2" x1="635.05" y1="318.38" x2="329.94" y2="636.43"/>
            <line class="cls-2" x1="541.04" y1="318.38" x2="235.92" y2="636.43"/>
          </g>
          <g>
            <line class="cls-2" x1="659" y1="636.09" x2="353.88" y2="954.14"/>
            <line class="cls-2" x1=".88" y1="636.09" x2="-304.24" y2="954.14"/>
            <line class="cls-2" x1="47.89" y1="636.09" x2="-257.23" y2="954.14"/>
            <line class="cls-2" x1="141.9" y1="636.09" x2="-163.21" y2="954.14"/>
            <line class="cls-2" x1="235.92" y1="636.09" x2="-69.2" y2="954.14"/>
            <line class="cls-2" x1="329.94" y1="636.43" x2="24.82" y2="954.47"/>
            <line class="cls-2" x1="423.96" y1="636.43" x2="118.84" y2="954.47"/>
            <line class="cls-2" x1="94.9" y1="636.09" x2="-210.22" y2="954.14"/>
            <line class="cls-2" x1="188.91" y1="636.09" x2="-116.2" y2="954.14"/>
            <line class="cls-2" x1="282.93" y1="636.09" x2="-22.19" y2="954.14"/>
            <g>
              <line class="cls-2" x1="706.01" y1="636.09" x2="400.89" y2="954.14"/>
              <line class="cls-2" x1="753.01" y1="636.09" x2="447.9" y2="954.14"/>
              <line class="cls-2" x1="847.03" y1="636.09" x2="541.92" y2="954.14"/>
              <line class="cls-2" x1="941.05" y1="636.09" x2="635.93" y2="954.14"/>
              <line class="cls-2" x1="800.02" y1="636.09" x2="494.91" y2="954.14"/>
              <line class="cls-2" x1="894.04" y1="636.09" x2="588.92" y2="954.14"/>
              <line class="cls-2" x1="988.06" y1="636.09" x2="682.94" y2="954.14"/>
            </g>
            <line class="cls-2" x1="376.95" y1="636.09" x2="71.83" y2="954.14"/>
            <line class="cls-2" x1="470.96" y1="636.43" x2="165.85" y2="954.47"/>
            <line class="cls-2" x1="564.98" y1="636.43" x2="259.86" y2="954.47"/>
            <line class="cls-2" x1="611.99" y1="636.43" x2="306.87" y2="954.47"/>
            <line class="cls-2" x1="517.97" y1="636.43" x2="212.86" y2="954.47"/>
          </g>
        </g>
        <g>
          <polygon class="cls-10" points="293.92 100.55 52.6 118.49 58.7 111.31 51.26 100.47 56.3 86.72 49.42 75.68 290.74 57.74 294.91 62.57 287.87 75.1 296.24 87.14 288.83 93 293.92 100.55"/>
          <g>
            <path class="cls-9" d="M111.31,100.08c-1.34,1.26-2.92,1.98-4.74,1.98h-38.97v-14.62h23.24v-9.33h-22.92v-14.54h21.34v-8.38h-21.5v-14.54h37.15c1.9,0,3.48.63,4.74,1.9,1.34,1.34,1.98,2.92,1.98,4.82v16.2h1.66v31.7c0,1.82-.71,3.48-1.98,4.82Z"/>
            <path class="cls-9" d="M202.29,105.14c0,1.98-1.11,3.16-3.32,3.56h-68.53v-11.22h4.82v-20.31h-7.75v-10.04h19.84c1.5,0,2.29.71,2.29,2.21l-.08,28.14h52.72v7.67ZM134.47,60.56v-16.12h11.3c1.5,0,2.21.79,2.21,2.29v13.83h-13.52ZM184.19,48.79v2.37l12.17-.08c1.5,0,2.21.79,2.21,2.29v28.38h-14.39v2.45l15.33-.08v8.93h-15.33v3.64h-15.1v-3.56l-15.73-.08v-8.85l15.73.08v-2.45h-14.15v-30.59h14.15v-2.37h-16.44v-8.85h16.44v-5.45h12.88c1.5,0,2.21.79,2.21,2.29v3.08l15.89-.08v8.93h-15.89ZM170.36,59.62h-3.56v3.48h3.56v-3.48ZM170.36,70.37h-3.56v3.24h3.56v-3.24ZM186.8,59.62h-3.56v3.4h3.56v-3.4ZM186.8,70.29h-3.56v3.32h3.56v-3.32Z"/>
            <path class="cls-9" d="M253.74,102.69v7.67h-18.57v-7.67h-25.21v-11.22h25.21v-3.08h-20.23v-39.12h56.75c1.5,0,2.29.71,2.29,2.21v36.91h-20.23v3.08h24.11l.08,11.22h-24.19ZM229.71,46.97l-14.7.08.08-12.65h12.41c1.5,0,2.21.79,2.21,2.29v10.28ZM235.56,59.38h-4.66v4.51h4.66v-4.51ZM235.56,73.76h-4.66v4.58h4.66v-4.58ZM236.67,46.89v-12.57h12.41c1.42,0,2.21.71,2.21,2.21v10.35h-14.62ZM257.85,59.38h-4.43v4.51h4.43v-4.51ZM257.93,73.76h-4.5v4.58h4.58l-.08-4.58ZM272.32,48.95l-14.23-2.61,2.77-13.04,12.01,2.21c1.19.24,1.82.87,1.82,1.9,0,.24,0,.47-.08.71l-2.29,10.83Z"/>
          </g>
          <path class="cls-7" d="M632.04,111.81l-15.15-3.94c-.69-.18-.97-.67-.76-1.43l3.96-14.9c.18-.69.67-.97,1.35-.79l15.12,4.02c.69.18.97.67.76,1.43l-3.86,14.84c-.18.69-.67.97-1.43.76ZM638.26,91.79l-16.71-4.52,9.86-40.81,17.32,4.69c1.45.39,1.96,1.26,1.5,2.69l-11.97,37.96Z"/>
          <g>
            <path class="cls-11" d="M381.69,85.54v-7.19h-10.12v27.19c0,1.11-.4,2.06-1.19,2.85-.79.79-1.74,1.19-2.85,1.19h-23.48v-12.49h7.75v-18.57l-26.16-.08v-11.7h28.69l-9.01-9.64c-.39-.47-.63-1.03-.63-1.58,0-.63.24-1.19.71-1.58l7.19-6.96h-15.89v-11.22h50.9v8.46c0,1.5-.55,2.77-1.58,3.79l-15.57,15.57,2.37,2.45-.79.71h22.05c1.5,0,2.21.71,2.21,2.21v16.6h-14.62ZM354.74,46.97l5.77,5.93,6.01-5.93h-11.78Z"/>
            <path class="cls-11" d="M437.17,57.01l-7.03.08v3.32h6.09v10.67h-6.09v13.28h-14.86v-8.62l-1.34,1.82c-.63.95-1.58,1.42-2.69,1.42-.79,0-1.42-.24-2.06-.63l-6.96-4.98,11.78-16.36-7.9.08v-10.12h9.17v-9.96h12.65c1.5,0,2.21.71,2.21,2.21v7.75h7.03v10.04ZM421.37,108.23l-12.88-3.79,5.22-17.94,10.75,3.08c1.11.32,1.58,1.03,1.58,2.13,0,.24,0,.47-.08.63l-4.58,15.89ZM463.57,107.83c-.79.79-1.74,1.19-2.77,1.19l-29.25-.08c-1.19,0-2.13-.4-2.85-1.19-.79-.79-1.19-1.74-1.19-2.85v-18.1h14.54v9.88h13.75v-4.51h9.01v12.8c0,1.11-.39,2.06-1.26,2.85ZM438.68,83.09v-44.5h33.04c1.5,0,2.29.79,2.29,2.29v42.21h-35.33ZM444.68,95.18v-10.12h7.27c1.5,0,2.29.79,2.29,2.21v7.9h-9.56ZM459.46,47.13h-6.24v3.64h6.24v-3.64ZM459.46,58.75h-6.24v3.95h6.24v-3.95ZM459.46,70.76h-6.24v3.79h6.24v-3.79ZM466.1,96.05v-10.75h7.35c1.5,0,2.21.71,2.21,2.21v8.54h-9.56Z"/>
          </g>
          <g>
            <path class="cls-7" d="M511.43,107.54c-.29,1.61-1.32,2.44-2.98,2.44l-21.9-.05c-.68,0-1.27-.24-1.76-.73-.49-.49-.68-1.08-.68-1.76v-37.58h12.8v29.67h4.79l1.56-8.26,9.63,2.05c.93.2,1.27.73,1.08,1.66l-2.54,12.56Z"/>
            <path class="cls-7" d="M548.97,83.69l.05,6.74h8.36v7.92h-8.36v9.33c0,.68-.25,1.27-.68,1.76-.49.49-1.08.73-1.76.73h-19.06c-.68,0-1.27-.24-1.76-.73-.49-.49-.73-1.08-.73-1.76v-15.83c0-.93.49-1.42,1.37-1.42h10.12l-.05-21.06h12.51v6.45h8.8v7.87h-8.8ZM537.09,98.35h-2.83l-.05,4.55h2.88v-4.55Z"/>
            <path class="cls-7" d="M602.83,100.31c0,1.66-.73,2.79-2.3,3.37l-19.99,7.14c-.25.1-.54.15-.83.15-1.17,0-1.96-.54-2.35-1.61l-3.67-9.48,15.05-5.33v-8.8l-21.21.05v-8.55h10.75v-8.46h13.59c.93,0,1.37.49,1.37,1.37v7.14l8.21-.05c.93,0,1.37.44,1.37,1.37v21.7Z"/>
          </g>
          <path class="cls-7" d="M319.57,81.2h-15.49v4.4l10.7-3.76,2.69,7.43-6.55,2.35,4.54,2.2-3.91,7.14-11.44-5.52-1.42.49v5.57h19.21v8.6h-27.91c-.68,0-1.27-.24-1.81-.73-.49-.49-.73-1.12-.73-1.81l.05-14.52c0-.88.44-1.52,1.32-1.86l3.03-1.27v-8.7h-7.72v-7.67h7.77l.05-4.94h10.8c.93,0,1.37.49,1.37,1.42v3.52h15.44v7.67Z"/>
          <g>
            <path class="cls-7" d="M72.49,159.81v-29.49h-4.93v-6.56h18.14c.84,0,1.3.42,1.3,1.3v34.74h-14.51Z"/>
            <path class="cls-7" d="M123.56,150.46c-.98,1.02-2.14,1.54-3.54,1.54-.93,0-1.77-.23-2.51-.74l-12.6-7.81-6.05,5.53-5.77-6.33,9.91-9.12c1.02-.88,2.19-1.35,3.54-1.35.98,0,1.91.28,2.74.84l11.91,7.44,5.49-5.81,6.19,5.91-9.3,9.91Z"/>
            <path class="cls-7" d="M171.46,157.11c-.74.74-1.67,1.16-2.79,1.16h-22.93v-8.6h13.72v-5.49h-13.49v-8.56h12.51v-4.93h-12.65v-8.56h21.91c1.07,0,2,.42,2.79,1.16.74.79,1.16,1.72,1.16,2.79v9.49h.93v18.74c0,1.07-.37,2-1.16,2.79Z"/>
            <path class="cls-7" d="M199.32,130.74h.05l-.09,32.88-9.21.05.05-21.49c-.42.33-.88.46-1.4.46-.56,0-1.07-.19-1.44-.51l-4.23-3.44,13.49-17.12,6.19,4.93-3.39,4.23ZM201.23,136v-6.46h7.63v-7.67h9.95c.88,0,1.35.42,1.35,1.3v6.37h7.67v6.46h-26.6ZM201.32,162.69v-6.51h26.42v6.51h-26.42ZM203.88,151.21v-10.74h6.6c.88,0,1.3.42,1.3,1.3v9.44h-7.91ZM225.04,151.35l-7.91-.23.33-10.79,6.6.23c.88.05,1.3.46,1.26,1.35l-.28,9.44Z"/>
            <path class="cls-7" d="M270.43,158.14c0,.65-.23,1.21-.7,1.67-.51.51-1.07.74-1.72.74l-11.81-.05v-6.79h3.02v-19.44h-2.42l-4.28,26.18h-16.19c-.65,0-1.21-.23-1.67-.74-.47-.47-.65-1.02-.65-1.67v-29.95c0-.88.42-1.3,1.3-1.3h33.76c.88,0,1.35.42,1.35,1.3v30.04ZM243.36,134.23l.05,18.7h1.02l3.07-18.7h-4.14Z"/>
            <path class="cls-7" d="M297.08,143.53l-1.02,1.44h16.79c.88,0,1.3.42,1.3,1.3v17.91h-23.49v-12.28l-4.51,6.7c-.51.7-1.16,1.02-1.95,1.02-.51,0-.93-.14-1.35-.42l-5.3-3.58,8.42-12.05h-5.53v-4.93l13.35-.05.05-1.58-10.79.05v-3.81h10.79v-1.58l-12.46.05v-4.93h25.53l-4.23-.65,1.21-6.6,6.74.98c.37.09.65.23.88.56.19.28.28.65.19.98l-.88,4.79h6.51l.05,4.79-13.02.05v1.49l10.88.05v3.81h-10.88v1.58h13.86v4.93h-21.11ZM288.24,126.42v-6.46h6.74c.93,0,1.35.42,1.35,1.35v5.12h-8.09ZM305.22,148.88h-5.44v1.44h5.44v-1.44ZM305.22,154h-5.44v1.49h5.44v-1.49ZM305.22,159.11h-5.44v1.67h5.44v-1.67Z"/>
            <path class="cls-7" d="M331.13,137.81c0,5.63-.51,13.3-1.63,23.02-.05.56-.28.98-.74,1.3-.42.28-.93.42-1.49.37l-4.74-.56c.7-6.42,1.12-10.88,1.3-13.35.37-4.65.56-8.19.56-10.65v-15.39h6.74v15.25ZM332.29,159.9v-36.18h5.58v36.18h-5.58ZM338.94,163.67v-41.35h5.3c.88,0,1.3.46,1.3,1.35v40h-6.6ZM365.82,163.58c-.56.56-1.12.88-1.81.88-.56,0-1.07-.23-1.54-.6l-4.74-4.14,2.61-3.02h-6.56l2.56,2.74-4.51,4.23c-.46.42-1.02.65-1.63.65-.7,0-1.26-.28-1.77-.79l-2.84-3.07,4.05-3.77h-2.19v-27.35l5.81-.05v-2.19h-6.7v-5.63h21.44v5.63h-6.19v2.14l4.09-.05c.88,0,1.35.42,1.35,1.3v26.18h-3.02l4.33,3.72-2.74,3.16ZM359.91,134.51h-4.56v1.91h4.56v-1.91ZM359.91,141.72h-4.56v2.09h4.56v-2.09ZM359.91,149.11h-4.56v2.09h4.56v-2.09Z"/>
            <path class="cls-7" d="M408.33,134.51h-14.74v4.19l10.19-3.58,2.56,7.07-6.23,2.23,4.33,2.09-3.72,6.79-10.88-5.26-1.35.47v5.3h18.28v8.19h-26.56c-.65,0-1.21-.23-1.72-.7-.46-.47-.7-1.07-.7-1.72l.05-13.81c0-.84.42-1.44,1.26-1.77l2.88-1.21v-8.28h-7.35v-7.3h7.4l.05-4.7h10.28c.88,0,1.3.47,1.3,1.35v3.35h14.7v7.3Z"/>
            <path class="cls-7" d="M460.61,161.95c0,.56-.23,1.02-.6,1.4-.42.42-.88.6-1.4.6h-40.7v-6.6h2.74l-.05-12h-4.19v-5.91h11.35c.84,0,1.3.46,1.3,1.35l-.05,16.56h31.58v4.6ZM420.1,135.58v-9.44h6.65c.88,0,1.3.47,1.3,1.35v8.09h-7.95ZM454.1,151.07l3.25,2.65-2.14,2.65c-.46.6-1.12.88-1.91.88-.51,0-1.02-.19-1.49-.51l-5.02-4.05,1.26-1.63h-6.65l1.4,2-5.21,3.63c-.42.28-.88.42-1.4.42-.79,0-1.44-.33-1.95-.98l-2-2.74,3.3-2.33h-5.12v-4.79h4.88v-2.28h-3.95v-4.84h3.95v-2.37h6.46c.88,0,1.35.42,1.35,1.3v1.07h3.67v-2.37h6.51c.88,0,1.35.42,1.35,1.3v1.07h4.51v4.84h-4.51v2.28h4.98v4.79h-5.53ZM444.42,135.49c-.42.37-.88.56-1.4.56h-9.77c-.56,0-1.02-.19-1.4-.56-.37-.42-.56-.88-.56-1.44v-7.91h7.12v-1.35h-7.07v-4.09h11.63c.88,0,1.3.47,1.3,1.3v8.05h-7.12v1.91h3.3v-1.53h4.56v3.63c0,.56-.23,1.02-.6,1.44ZM446.79,144h-3.67v2.28h3.67v-2.28ZM459.35,135.49c-.37.37-.84.56-1.4.56h-10.05c-.56,0-1.02-.19-1.39-.56-.37-.42-.56-.88-.56-1.44v-8.05h7.12v-1.21h-7.07v-4.09h11.63c.88,0,1.3.47,1.3,1.3v8.05h-7.12v1.91h3.58v-1.53h4.51v3.63c0,.56-.19,1.02-.56,1.44Z"/>
            <path class="cls-7" d="M486.88,161.67c-.65,0-1.21-.23-1.67-.7-.47-.42-.7-.98-.7-1.67v-11.44h-2.7l-4.84,14.98-11.49-3.49,11.77-37.35,10.42,3.16c.6.19.88.6.88,1.21,0,.19,0,.33-.05.42l-4.14,12.88h10.88c.88,0,1.3.47,1.3,1.4v12.46h6.84v8.14h-16.51Z"/>
            <path class="cls-7" d="M546.09,134.28l-14.6,15.02v2.33h11.44v9.63h-21.3c-.65,0-1.21-.23-1.67-.65-.46-.47-.7-1.02-.7-1.72v-11.53c0-.84.33-1.58.98-2.23l10.46-10.79-18.88-.05.05-7.86h37.21v7.86h-2.98ZM542.14,145.3v-6.23h3.91c.6,0,.88.28.88.88v5.35h-4.79ZM548.6,145.3v-6.23h3.86c.61,0,.93.28.93.88v5.35h-4.79Z"/>
            <path class="cls-7" d="M599.48,150.88h-2.93v7.16c0,.65-.23,1.21-.7,1.67-.46.47-1.02.7-1.67.7h-13.81c-.7,0-1.25-.23-1.67-.7-.46-.51-.7-1.07-.7-1.72l-.05-12.74c0-.84.42-1.3,1.3-1.3h7.91l.05-7.67h-1.67l-10.93,6.98v18.32h-10.65v-9.21l-2.23,1.4-5.02-7.86,7.26-4.88v-3.16h-5.3v-8.09h5.3v-6.74h9.3c.88,0,1.35.42,1.35,1.3v8.51l7.39-4.74h13.3c.88,0,1.3.47,1.3,1.35l-.05,14.56h2.93v6.88ZM584.83,150.88v2.93h2.56v-2.93h-2.56Z"/>
            <path class="cls-7" d="M630.27,150.37h-11.21l-.84-28.32h11.58c.88,0,1.3.47,1.3,1.35l-.84,26.98ZM630.04,163.53l-10.93.05c-.42,0-.65-.23-.65-.65l-.05-8.74c0-.42.23-.65.7-.65l10.93-.05c.42,0,.65.23.65.65l.05,8.74c0,.42-.23.65-.7.65Z"/>
          </g>
        </g>
        <rect class="cls-4" x="36.84" y="180.28" width="633.01" height="325.08"/>
        <g>
          <rect class="cls-5" x="38.46" y="645.27" width="628.21" height="119.91"/>
          <rect class="cls-3" x="38.46" y="645.27" width="628.21" height="119.91"/>
        </g>
        <g>
          <rect class="cls-6" x="16.03" y="765.18" width="673.08" height="34.85"/>
          <polyline class="cls-3" points="16.03 800.03 16.03 765.18 689.1 765.18 689.1 800.03"/>
        </g>
      </g>
    </g>
  </g>
</svg>