<?xml version="1.0" encoding="UTF-8"?>
<svg id="_レイヤー_2" data-name="レイヤー 2" xmlns="http://www.w3.org/2000/svg" xmlns:xlink="http://www.w3.org/1999/xlink" viewBox="0 0 705.13 799.99">
  <defs>
    <style>
      .cls-1, .cls-2, .cls-3 {
        fill: none;
      }

      .cls-4 {
        fill: #fff;
        stroke: #008cff;
        stroke-width: 5.99px;
      }

      .cls-4, .cls-2, .cls-3 {
        stroke-miterlimit: 10;
      }

      .cls-2 {
        stroke: #fff;
        stroke-width: 14.17px;
      }

      .cls-5 {
        fill: url(#_名称未設定グラデーション_98-2);
      }

      .cls-6 {
        fill: url(#_名称未設定グラデーション_98-3);
      }

      .cls-3 {
        stroke: #ffc3bd;
        stroke-width: 5.4px;
      }

      .cls-7 {
        clip-path: url(#clippath-1);
      }

      .cls-8 {
        fill: #ff7bba;
        opacity: .4;
      }

      .cls-9 {
        fill: #ff0072;
      }

      .cls-9, .cls-10 {
        font-size: 79.04px;
      }

      .cls-9, .cls-10, .cls-11, .cls-12, .cls-13 {
        font-family: ADS-strong-83pv-RKSJ-H, ADS-strong;
      }

      .cls-14 {
        letter-spacing: -.1em;
      }

      .cls-15 {
        letter-spacing: -.04em;
      }

      .cls-16 {
        letter-spacing: .11em;
      }

      .cls-17 {
        clip-path: url(#clippath);
      }

      .cls-10 {
        fill: #0c419a;
      }

      .cls-11 {
        font-size: 48.88px;
      }

      .cls-11, .cls-12, .cls-13 {
        fill: #0089e5;
      }

      .cls-12 {
        font-size: 46.51px;
      }

      .cls-13 {
        font-size: 79.04px;
      }

      .cls-18 {
        fill: url(#_名称未設定グラデーション_98);
      }
    </style>
    <clipPath id="clippath">
      <rect class="cls-1" width="705.13" height="799.99"/>
    </clipPath>
    <linearGradient id="_名称未設定グラデーション_98" data-name="名称未設定グラデーション 98" x1="352.56" y1="799.99" x2="352.56" y2="0" gradientUnits="userSpaceOnUse">
      <stop offset=".25" stop-color="#fffed2"/>
      <stop offset=".46" stop-color="#fff7c8"/>
      <stop offset=".8" stop-color="#ffe5af"/>
      <stop offset="1" stop-color="#ffd89d"/>
    </linearGradient>
    <clipPath id="clippath-1">
      <rect class="cls-1" y="0" width="705.13" height="799.99"/>
    </clipPath>
    <linearGradient id="_名称未設定グラデーション_98-2" data-name="名称未設定グラデーション 98" y1="765.18" x2="352.56" y2="645.27" xlink:href="#_名称未設定グラデーション_98"/>
    <linearGradient id="_名称未設定グラデーション_98-3" data-name="名称未設定グラデーション 98" y1="800.03" x2="352.56" y2="765.18" xlink:href="#_名称未設定グラデーション_98"/>
  </defs>
  <g id="_レイヤー_1-2" data-name="レイヤー 1">
    <g class="cls-17">
      <g>
        <rect class="cls-18" y="0" width="705.13" height="799.99"/>
        <g class="cls-7">
          <g>
            <line class="cls-2" x1="705.13" y1="0" x2="400.01" y2="318.05"/>
            <line class="cls-2" y1="0" x2="-305.12" y2="318.05"/>
            <line class="cls-2" x1="47.01" y1="0" x2="-258.11" y2="318.05"/>
            <line class="cls-2" x1="94.02" y1="0" x2="-211.1" y2="318.05"/>
            <line class="cls-2" x1="188.03" y1="0" x2="-117.08" y2="318.05"/>
            <line class="cls-2" x1="282.05" y1="0" x2="-23.07" y2="318.05"/>
            <line class="cls-2" x1="376.07" y1=".33" x2="70.95" y2="318.38"/>
            <line class="cls-2" x1="470.09" y1=".33" x2="164.97" y2="318.38"/>
            <line class="cls-2" x1="141.03" y1="0" x2="-164.09" y2="318.05"/>
            <line class="cls-2" x1="235.04" y1="0" x2="-70.07" y2="318.05"/>
            <line class="cls-2" x1="329.06" y1="0" x2="23.94" y2="318.05"/>
            <g>
              <line class="cls-2" x1="752.14" y1="0" x2="447.02" y2="318.05"/>
              <line class="cls-2" x1="799.15" y1="0" x2="494.03" y2="318.05"/>
              <line class="cls-2" x1="893.16" y1="0" x2="588.05" y2="318.05"/>
              <line class="cls-2" x1="987.18" y1="0" x2="682.06" y2="318.05"/>
              <line class="cls-2" x1="846.15" y1="0" x2="541.04" y2="318.05"/>
              <line class="cls-2" x1="940.17" y1="0" x2="635.05" y2="318.05"/>
            </g>
            <line class="cls-2" x1="423.08" y1="0" x2="117.96" y2="318.05"/>
            <line class="cls-2" x1="517.09" y1=".33" x2="211.98" y2="318.38"/>
            <line class="cls-2" x1="611.11" y1=".33" x2="305.99" y2="318.38"/>
            <line class="cls-2" x1="658.12" y1=".33" x2="353" y2="318.38"/>
            <line class="cls-2" x1="564.1" y1=".33" x2="258.99" y2="318.38"/>
          </g>
          <g>
            <line class="cls-2" x1="682.06" y1="318.05" x2="376.95" y2="636.09"/>
            <line class="cls-2" x1="23.94" y1="318.05" x2="-281.17" y2="636.09"/>
            <line class="cls-2" x1="70.95" y1="318.05" x2="-234.16" y2="636.09"/>
            <line class="cls-2" x1="164.97" y1="318.05" x2="-140.15" y2="636.09"/>
            <line class="cls-2" x1="258.99" y1="318.05" x2="-46.13" y2="636.09"/>
            <line class="cls-2" x1="353" y1="318.38" x2="47.89" y2="636.43"/>
            <line class="cls-2" x1="447.02" y1="318.38" x2="141.9" y2="636.43"/>
            <line class="cls-2" x1="117.96" y1="318.05" x2="-187.16" y2="636.09"/>
            <line class="cls-2" x1="211.98" y1="318.05" x2="-93.14" y2="636.09"/>
            <line class="cls-2" x1="305.99" y1="318.05" x2=".88" y2="636.09"/>
            <g>
              <line class="cls-2" x1="729.07" y1="318.05" x2="423.96" y2="636.09"/>
              <line class="cls-2" x1="776.08" y1="318.05" x2="470.96" y2="636.09"/>
              <line class="cls-2" x1="870.1" y1="318.05" x2="564.98" y2="636.09"/>
              <line class="cls-2" x1="964.11" y1="318.05" x2="659" y2="636.09"/>
              <line class="cls-2" x1="823.09" y1="318.05" x2="517.97" y2="636.09"/>
              <line class="cls-2" x1="917.11" y1="318.05" x2="611.99" y2="636.09"/>
              <line class="cls-2" x1="1011.12" y1="318.05" x2="706.01" y2="636.09"/>
            </g>
            <line class="cls-2" x1="400.01" y1="318.05" x2="94.9" y2="636.09"/>
            <line class="cls-2" x1="494.03" y1="318.38" x2="188.91" y2="636.43"/>
            <line class="cls-2" x1="588.05" y1="318.38" x2="282.93" y2="636.43"/>
            <line class="cls-2" x1="635.05" y1="318.38" x2="329.94" y2="636.43"/>
            <line class="cls-2" x1="541.04" y1="318.38" x2="235.92" y2="636.43"/>
          </g>
          <g>
            <line class="cls-2" x1="659" y1="636.09" x2="353.88" y2="954.14"/>
            <line class="cls-2" x1=".88" y1="636.09" x2="-304.24" y2="954.14"/>
            <line class="cls-2" x1="47.89" y1="636.09" x2="-257.23" y2="954.14"/>
            <line class="cls-2" x1="141.9" y1="636.09" x2="-163.21" y2="954.14"/>
            <line class="cls-2" x1="235.92" y1="636.09" x2="-69.2" y2="954.14"/>
            <line class="cls-2" x1="329.94" y1="636.43" x2="24.82" y2="954.47"/>
            <line class="cls-2" x1="423.96" y1="636.43" x2="118.84" y2="954.47"/>
            <line class="cls-2" x1="94.9" y1="636.09" x2="-210.22" y2="954.14"/>
            <line class="cls-2" x1="188.91" y1="636.09" x2="-116.2" y2="954.14"/>
            <line class="cls-2" x1="282.93" y1="636.09" x2="-22.19" y2="954.14"/>
            <g>
              <line class="cls-2" x1="706.01" y1="636.09" x2="400.89" y2="954.14"/>
              <line class="cls-2" x1="753.01" y1="636.09" x2="447.9" y2="954.14"/>
              <line class="cls-2" x1="847.03" y1="636.09" x2="541.92" y2="954.14"/>
              <line class="cls-2" x1="941.05" y1="636.09" x2="635.93" y2="954.14"/>
              <line class="cls-2" x1="800.02" y1="636.09" x2="494.91" y2="954.14"/>
              <line class="cls-2" x1="894.04" y1="636.09" x2="588.92" y2="954.14"/>
              <line class="cls-2" x1="988.06" y1="636.09" x2="682.94" y2="954.14"/>
            </g>
            <line class="cls-2" x1="376.95" y1="636.09" x2="71.83" y2="954.14"/>
            <line class="cls-2" x1="470.96" y1="636.43" x2="165.85" y2="954.47"/>
            <line class="cls-2" x1="564.98" y1="636.43" x2="259.86" y2="954.47"/>
            <line class="cls-2" x1="611.99" y1="636.43" x2="306.87" y2="954.47"/>
            <line class="cls-2" x1="517.97" y1="636.43" x2="212.86" y2="954.47"/>
          </g>
        </g>
        <g>
          <polygon class="cls-8" points="293.92 100.55 52.6 118.49 58.7 111.31 51.26 100.47 56.3 86.72 49.42 75.68 290.74 57.74 294.91 62.57 287.87 75.1 296.24 87.14 288.83 93 293.92 100.55"/>
          <text class="cls-9" transform="translate(62.86 101.82)"><tspan class="cls-16" x="0" y="0">3</tspan><tspan x="63.07" y="0">連単</tspan></text>
          <text class="cls-13" transform="translate(610.03 104.74) rotate(14.88)"><tspan x="0" y="0">!</tspan></text>
          <text class="cls-10" transform="translate(321.86 101.82)"><tspan x="0" y="0">予想</tspan></text>
          <text class="cls-11" transform="translate(473.06 107.69)"><tspan class="cls-14" x="0" y="0">しよ</tspan><tspan class="cls-15" x="87.98" y="0">う</tspan></text>
          <text class="cls-11" transform="translate(277.93 107.69)"><tspan x="0" y="0">を</tspan></text>
          <text class="cls-12" transform="translate(67.37 159.72)"><tspan x="0" y="0">1〜３位の着順を選んでね！</tspan></text>
        </g>
        <rect class="cls-4" x="36.84" y="180.28" width="633.01" height="325.08"/>
        <g>
          <rect class="cls-5" x="38.46" y="645.27" width="628.21" height="119.91"/>
          <rect class="cls-3" x="38.46" y="645.27" width="628.21" height="119.91"/>
        </g>
        <g>
          <rect class="cls-6" x="16.03" y="765.18" width="673.08" height="34.85"/>
          <polyline class="cls-3" points="16.03 800.03 16.03 765.18 689.1 765.18 689.1 800.03"/>
        </g>
      </g>
    </g>
  </g>
</svg>